<svg width="1440" height="1120" viewBox="0 0 1440 1120" fill="none" xmlns="http://www.w3.org/2000/svg">
<g clip-path="url(#clip0_1_235)">
<rect width="1440" height="1120" fill="#080A32"/>
<rect opacity="0.05" x="1" y="548" width="179" height="180" fill="white"/>
<rect opacity="0.05" x="360.5" y="368" width="179" height="180" fill="white"/>
<rect opacity="0.05" x="1259.5" y="368" width="179" height="180" fill="white"/>
<rect opacity="0.05" x="900" y="548.5" width="179" height="180" fill="white"/>
<rect opacity="0.05" x="900" y="907.5" width="179" height="180" fill="white"/>
<rect opacity="0.05" x="540" y="1088.5" width="179" height="180" fill="white"/>
<path d="M0.489289 -24L0.489239 1120M180.303 -24L180.303 1120M360.117 -24L360.117 1120M539.931 -24L539.931 1120M719.745 -24L719.745 1120M899.558 -24L899.558 1120M1079.37 -24L1079.37 1120M1259.19 -24L1259.19 1120M1439 -24L1439 1120M0 1088.01H1438.51M0 908.033L1438.51 908.033M0 728.053L1438.51 728.053M0 548.073L1438.51 548.073M0 368.092L1438.51 368.092M0 188.112L1438.51 188.112M0 8.13169L1438.51 8.13176" stroke="url(#paint0_linear_1_235)" stroke-opacity="0.3"/>
<g opacity="0.08" filter="url(#filter0_f_1_235)">
<circle cx="33" r="325" fill="white"/>
</g>
</g>
<defs>
<filter id="filter0_f_1_235" x="-672" y="-705" width="1410" height="1410" filterUnits="userSpaceOnUse" color-interpolation-filters="sRGB">
<feFlood flood-opacity="0" result="BackgroundImageFix"/>
<feBlend mode="normal" in="SourceGraphic" in2="BackgroundImageFix" result="shape"/>
<feGaussianBlur stdDeviation="190" result="effect1_foregroundBlur_1_235"/>
</filter>
<linearGradient id="paint0_linear_1_235" x1="612" y1="1216" x2="460" y2="35.5001" gradientUnits="userSpaceOnUse">
<stop stop-color="white"/>
<stop offset="1" stop-color="white" stop-opacity="0"/>
</linearGradient>
<clipPath id="clip0_1_235">
<rect width="1440" height="1120" fill="white"/>
</clipPath>
</defs>
</svg>
