<svg width="1440" height="1648" viewBox="0 0 1440 1648" fill="none" xmlns="http://www.w3.org/2000/svg">
<rect width="1440" height="1648" fill="#080A32"/>
<mask id="mask0_29_187" style="mask-type:alpha" maskUnits="userSpaceOnUse" x="0" y="0" width="1440" height="1604">
<rect width="1440" height="1604" fill="#080A32"/>
</mask>
<g mask="url(#mask0_29_187)">
<g filter="url(#filter0_i_29_187)">
<path fill-rule="evenodd" clip-rule="evenodd" d="M142.168 3796.44C-185.242 3789.24 -99.504 3202.06 -141.316 2882.38C-171.683 2650.19 -68.1028 2434.45 -66.4414 2201.42C-64.8323 1975.7 -243.983 1543.7 -48.0985 1431.38C212.801 1281.78 539.056 1700.26 786.798 1693.78C1112.89 1614.11 690.044 783.792 1001.59 503.462C1233.1 295.145 2563.24 564.041 2750.97 823.786C2975.02 1133.79 3141.25 784.276 3275.72 1138.61C3373.87 1397.24 2579.65 2006.46 2711.43 2251.22C2859.94 2527.06 2938.8 3011.22 2664.05 3150.68C2284.37 3343.41 1848.21 2894.42 1417.71 2829.36C774.712 2881.27 1067.91 3255.08 971.395 3328.26C624.635 3591.16 587.79 3806.25 142.168 3796.44Z" fill="url(#paint0_linear_29_187)" fill-opacity="0.2"/>
</g>
<path opacity="0.2" d="M-11.6318 240.524C74.1757 292.874 186.174 265.751 238.524 179.944C290.874 94.1362 263.751 -17.8624 177.944 -70.2122C92.1362 -122.562 -19.8624 -95.4393 -72.2122 -9.63179C-124.562 76.1757 -97.4393 188.174 -11.6318 240.524ZM133.53 2.58722C179.131 30.408 193.545 89.9284 165.725 135.53C137.904 181.131 78.3835 195.545 32.782 167.725C-12.8194 139.904 -27.2335 80.3835 0.58722 34.782C28.408 -10.8194 87.9284 -25.2335 133.53 2.58722Z" fill="url(#paint1_linear_29_187)"/>
</g>
<path d="M104.004 392.001H696.004C709.259 392.001 720.004 402.746 720.004 416.001V596.001C720.004 609.256 730.749 620.001 744.004 620.001L1336 620.001" stroke="#666CFF" stroke-opacity="0.5"/>
<defs>
<filter id="filter0_i_29_187" x="-146.888" y="333.91" width="3431.03" height="3462.85" filterUnits="userSpaceOnUse" color-interpolation-filters="sRGB">
<feFlood flood-opacity="0" result="BackgroundImageFix"/>
<feBlend mode="normal" in="SourceGraphic" in2="BackgroundImageFix" result="shape"/>
<feColorMatrix in="SourceAlpha" type="matrix" values="0 0 0 0 0 0 0 0 0 0 0 0 0 0 0 0 0 0 127 0" result="hardAlpha"/>
<feOffset dy="-95.1917"/>
<feGaussianBlur stdDeviation="72.1149"/>
<feComposite in2="hardAlpha" operator="arithmetic" k2="-1" k3="1"/>
<feColorMatrix type="matrix" values="0 0 0 0 0.0901961 0 0 0 0 0.133333 0 0 0 0 0.384314 0 0 0 1 0"/>
<feBlend mode="normal" in2="shape" result="effect1_innerShadow_29_187"/>
</filter>
<linearGradient id="paint0_linear_29_187" x1="2501.7" y1="2966.54" x2="-313.359" y2="1475.31" gradientUnits="userSpaceOnUse">
<stop offset="0.00502563" stop-color="#030420"/>
<stop offset="0.195026" stop-color="#040423"/>
<stop offset="0.405026" stop-color="#050D33"/>
<stop offset="0.540417" stop-color="#091343"/>
<stop offset="0.710481" stop-color="#182152"/>
<stop offset="0.890894" stop-color="#4F4A6F"/>
<stop offset="0.953684" stop-color="#5E5571"/>
<stop offset="1" stop-color="#4F4A6F"/>
</linearGradient>
<linearGradient id="paint1_linear_29_187" x1="-72.2122" y1="-9.63179" x2="238.524" y2="179.944" gradientUnits="userSpaceOnUse">
<stop stop-color="white"/>
<stop offset="1" stop-color="white" stop-opacity="0"/>
</linearGradient>
</defs>
</svg>
