<svg width="1809" height="895" viewBox="0 0 1809 895" fill="none" xmlns="http://www.w3.org/2000/svg">
<path d="M1560 40C1560 17.9086 1542.09 0 1520 0H320C297.909 0 280 17.9086 280 40V144C280 166.091 262.091 184 240 184H200V689H1640V184H1600C1577.91 184 1560 166.091 1560 144V40Z" fill="#080A32"/>
<path opacity="0.2" d="M1439.27 858.992C1553.74 928.829 1703.15 892.646 1772.99 778.174C1842.83 663.702 1806.65 514.29 1692.17 444.452C1577.7 374.615 1428.29 410.798 1358.45 525.27C1288.61 639.742 1324.8 789.154 1439.27 858.992ZM1632.92 541.571C1693.76 578.685 1712.99 658.089 1675.87 718.923C1638.76 779.758 1559.36 798.988 1498.52 761.873C1437.69 724.759 1418.46 645.355 1455.57 584.52C1492.69 523.685 1572.09 504.456 1632.92 541.571Z" fill="url(#paint0_linear_9_207)"/>
<path opacity="0.2" d="M87.3684 566.524C173.176 618.874 285.175 591.751 337.524 505.944C389.874 420.136 362.751 308.138 276.944 255.788C191.136 203.438 79.1378 230.561 26.7879 316.368C-25.5619 402.176 1.56089 514.174 87.3684 566.524ZM232.53 328.587C278.132 356.408 292.546 415.928 264.725 461.53C236.904 507.131 177.384 521.545 131.782 493.725C86.1808 465.904 71.7666 406.384 99.5874 360.782C127.408 315.181 186.929 300.766 232.53 328.587Z" fill="url(#paint1_linear_9_207)"/>
<rect x="280" y="580" width="1280" height="1" fill="#3D414C"/>
<path d="M280 184L1560 184" stroke="#3D414C"/>
<defs>
<linearGradient id="paint0_linear_9_207" x1="1899.03" y1="867.631" x2="1232" y2="483.423" gradientUnits="userSpaceOnUse">
<stop stop-color="white"/>
<stop offset="1" stop-color="white" stop-opacity="0"/>
</linearGradient>
<linearGradient id="paint1_linear_9_207" x1="26.7879" y1="316.368" x2="337.524" y2="505.944" gradientUnits="userSpaceOnUse">
<stop stop-color="white"/>
<stop offset="1" stop-color="white" stop-opacity="0"/>
</linearGradient>
</defs>
</svg>
