<svg width="1440" height="1120" viewBox="0 0 1440 1120" fill="none" xmlns="http://www.w3.org/2000/svg">
<g clip-path="url(#clip0_1_235)">
<rect width="1440" height="1120" fill="#080A32"/>
<rect opacity="0.05" x="1" y="548" width="179" height="180" fill="white"/>
<rect opacity="0.05" x="360.5" y="368" width="179" height="180" fill="white"/>
<rect opacity="0.05" x="1259.5" y="368" width="179" height="180" fill="white"/>
<rect opacity="0.05" x="900" y="548.5" width="179" height="180" fill="white"/>
<rect opacity="0.05" x="900" y="907.5" width="179" height="180" fill="white"/>
<rect opacity="0.05" x="540" y="1088.5" width="179" height="180" fill="white"/>
<path d="M0.489289 -24L0.489239 1120M180.303 -24L180.303 1120M360.117 -24L360.117 1120M539.931 -24L539.931 1120M719.745 -24L719.745 1120M899.558 -24L899.558 1120M1079.37 -24L1079.37 1120M1259.19 -24L1259.19 1120M1439 -24L1439 1120M0 1088.01H1438.51M0 908.033L1438.51 908.033M0 728.053L1438.51 728.053M0 548.073L1438.51 548.073M0 368.092L1438.51 368.092M0 188.112L1438.51 188.112M0 8.13169L1438.51 8.13176" stroke="url(#paint0_linear_1_235)" stroke-opacity="0.3"/>
<g opacity="0.08" filter="url(#filter0_f_1_235)">
<circle cx="33" r="325" fill="white"/>
</g>
<mask id="mask0_1_235" style="mask-type:alpha" maskUnits="userSpaceOnUse" x="33" y="298" width="1280" height="334">
<path fill-rule="evenodd" clip-rule="evenodd" d="M1088 316.335C1088 306.209 1079.79 298 1069.66 298H276.335C266.209 298 258 306.209 258 316.335C258 326.462 249.791 334.671 239.665 334.671H53C41.9543 334.671 33 343.625 33 354.671V612C33 623.046 41.9543 632 53 632H1293C1304.05 632 1313 623.046 1313 612V354.671C1313 343.625 1304.05 334.671 1293 334.671H1106.34C1096.21 334.671 1088 326.462 1088 316.335Z" fill="url(#paint1_linear_1_235)"/>
</mask>
<g mask="url(#mask0_1_235)">
<g filter="url(#filter1_b_1_235)">
<path fill-rule="evenodd" clip-rule="evenodd" d="M1088 316.335C1088 306.209 1079.79 298 1069.66 298H276.335C266.209 298 258 306.209 258 316.335C258 326.462 249.791 334.671 239.665 334.671H53C41.9543 334.671 33 343.625 33 354.671V612C33 623.046 41.9543 632 53 632H1293C1304.05 632 1313 623.046 1313 612V354.671C1313 343.625 1304.05 334.671 1293 334.671H1106.34C1096.21 334.671 1088 326.462 1088 316.335Z" fill="url(#paint2_linear_1_235)"/>
</g>
<path opacity="0.1" d="M1398 572C1398 651.529 1333.53 716 1254 716C1174.47 716 1110 651.529 1110 572C1110 492.471 1174.47 428 1254 428C1333.53 428 1398 492.471 1398 572ZM1177.47 572C1177.47 614.265 1211.74 648.527 1254 648.527C1296.26 648.527 1330.53 614.265 1330.53 572C1330.53 529.735 1296.26 495.473 1254 495.473C1211.74 495.473 1177.47 529.735 1177.47 572Z" fill="white"/>
<path opacity="0.2" d="M307 348C307 247.484 225.516 166 125 166C24.4842 166 -57 247.484 -57 348C-57 448.516 24.4842 530 125 530C225.516 530 307 448.516 307 348ZM28.2781 348C28.2781 294.582 71.582 251.278 125 251.278C178.418 251.278 221.722 294.582 221.722 348C221.722 401.418 178.418 444.722 125 444.722C71.582 444.722 28.2781 401.418 28.2781 348Z" fill="url(#paint3_linear_1_235)"/>
<rect x="184" y="415" width="108" height="108" rx="54" fill="url(#paint4_linear_1_235)"/>
<rect x="195" y="426" width="86" height="86" rx="43" fill="white"/>
<rect x="195" y="426" width="86" height="86" rx="43" stroke="url(#paint5_linear_1_235)" stroke-width="2"/>
<path d="M247.078 447.333H228.922C221.035 447.333 216.333 452.035 216.333 459.922V478.057C216.333 485.965 221.035 490.667 228.922 490.667H247.057C254.943 490.667 259.645 485.965 259.645 478.078V459.922C259.667 452.035 254.965 447.333 247.078 447.333ZM236.982 472.315L228.922 480.375H233.667C234.555 480.375 235.292 481.112 235.292 482C235.292 482.888 234.555 483.625 233.667 483.625H225C224.783 483.625 224.567 483.582 224.372 483.495C223.982 483.322 223.657 483.018 223.483 482.607C223.418 482.412 223.375 482.217 223.375 482V473.333C223.375 472.445 224.112 471.708 225 471.708C225.888 471.708 226.625 472.445 226.625 473.333V478.078L234.685 470.018C235.313 469.39 236.353 469.39 236.982 470.018C237.61 470.647 237.61 471.687 236.982 472.315ZM252.625 464.667C252.625 465.555 251.888 466.292 251 466.292C250.112 466.292 249.375 465.555 249.375 464.667V459.922L241.315 467.982C240.99 468.307 240.578 468.458 240.167 468.458C239.755 468.458 239.343 468.307 239.018 467.982C238.39 467.353 238.39 466.313 239.018 465.685L247.078 457.625H242.333C241.445 457.625 240.708 456.888 240.708 456C240.708 455.112 241.445 454.375 242.333 454.375H251C251.217 454.375 251.412 454.418 251.628 454.505C252.018 454.678 252.343 454.982 252.517 455.393C252.582 455.588 252.625 455.783 252.625 456V464.667Z" fill="url(#paint6_linear_1_235)"/>
<path d="M114.246 558V540.545H125.189V542.812H116.879V548.131H124.618V550.389H116.879V555.733H125.291V558H114.246ZM130.513 544.909L133.403 550.006L136.317 544.909H139.104L135.022 551.455L139.138 558H136.352L133.403 553.108L130.462 558H127.667L131.741 551.455L127.718 544.909H130.513ZM141.721 562.909V544.909H144.21V547.031H144.423C144.57 546.759 144.783 546.443 145.062 546.085C145.34 545.727 145.727 545.415 146.221 545.148C146.715 544.875 147.369 544.739 148.181 544.739C149.238 544.739 150.181 545.006 151.011 545.54C151.84 546.074 152.491 546.844 152.962 547.849C153.44 548.855 153.678 550.065 153.678 551.48C153.678 552.895 153.442 554.108 152.971 555.119C152.499 556.125 151.852 556.901 151.028 557.446C150.204 557.986 149.263 558.256 148.207 558.256C147.411 558.256 146.761 558.122 146.255 557.855C145.755 557.588 145.363 557.276 145.079 556.918C144.795 556.56 144.576 556.241 144.423 555.963H144.269V562.909H141.721ZM144.218 551.455C144.218 552.375 144.352 553.182 144.619 553.875C144.886 554.568 145.272 555.111 145.778 555.503C146.283 555.889 146.903 556.082 147.636 556.082C148.397 556.082 149.033 555.881 149.545 555.477C150.056 555.068 150.442 554.514 150.704 553.815C150.971 553.116 151.104 552.33 151.104 551.455C151.104 550.591 150.974 549.815 150.712 549.128C150.457 548.44 150.07 547.898 149.553 547.5C149.042 547.102 148.403 546.903 147.636 546.903C146.897 546.903 146.272 547.094 145.761 547.474C145.255 547.855 144.871 548.386 144.61 549.068C144.349 549.75 144.218 550.545 144.218 551.455ZM160.343 558.29C159.513 558.29 158.763 558.136 158.093 557.83C157.423 557.517 156.891 557.065 156.499 556.474C156.113 555.884 155.92 555.159 155.92 554.301C155.92 553.562 156.062 552.955 156.346 552.477C156.63 552 157.013 551.622 157.496 551.344C157.979 551.065 158.519 550.855 159.116 550.713C159.712 550.571 160.32 550.463 160.94 550.389C161.724 550.298 162.36 550.224 162.849 550.168C163.337 550.105 163.692 550.006 163.914 549.869C164.136 549.733 164.246 549.511 164.246 549.205V549.145C164.246 548.401 164.036 547.824 163.616 547.415C163.201 547.006 162.582 546.801 161.758 546.801C160.9 546.801 160.224 546.991 159.729 547.372C159.241 547.747 158.903 548.165 158.715 548.625L156.32 548.08C156.604 547.284 157.019 546.642 157.565 546.153C158.116 545.659 158.749 545.301 159.465 545.08C160.181 544.852 160.934 544.739 161.724 544.739C162.246 544.739 162.8 544.801 163.386 544.926C163.977 545.045 164.528 545.267 165.039 545.591C165.556 545.915 165.979 546.378 166.309 546.98C166.638 547.577 166.803 548.352 166.803 549.307V558H164.315V556.21H164.212C164.048 556.54 163.8 556.864 163.471 557.182C163.141 557.5 162.718 557.764 162.201 557.974C161.684 558.185 161.065 558.29 160.343 558.29ZM160.897 556.244C161.602 556.244 162.204 556.105 162.704 555.827C163.21 555.548 163.593 555.185 163.854 554.736C164.121 554.281 164.255 553.795 164.255 553.278V551.591C164.164 551.682 163.988 551.767 163.727 551.847C163.471 551.92 163.178 551.986 162.849 552.043C162.519 552.094 162.198 552.142 161.886 552.188C161.573 552.227 161.312 552.261 161.102 552.29C160.607 552.352 160.156 552.457 159.746 552.605C159.343 552.753 159.019 552.966 158.775 553.244C158.536 553.517 158.417 553.881 158.417 554.335C158.417 554.966 158.65 555.443 159.116 555.767C159.582 556.085 160.175 556.244 160.897 556.244ZM172.746 550.227V558H170.197V544.909H172.643V547.04H172.805C173.107 546.347 173.578 545.79 174.22 545.369C174.868 544.949 175.683 544.739 176.666 544.739C177.558 544.739 178.339 544.926 179.01 545.301C179.68 545.67 180.2 546.222 180.57 546.955C180.939 547.687 181.124 548.594 181.124 549.673V558H178.575V549.98C178.575 549.031 178.328 548.29 177.834 547.756C177.339 547.216 176.661 546.946 175.797 546.946C175.206 546.946 174.68 547.074 174.22 547.33C173.766 547.585 173.405 547.96 173.138 548.455C172.876 548.943 172.746 549.534 172.746 550.227ZM189.442 558.256C188.385 558.256 187.442 557.986 186.612 557.446C185.788 556.901 185.141 556.125 184.669 555.119C184.203 554.108 183.97 552.895 183.97 551.48C183.97 550.065 184.206 548.855 184.678 547.849C185.155 546.844 185.808 546.074 186.638 545.54C187.467 545.006 188.408 544.739 189.459 544.739C190.271 544.739 190.925 544.875 191.419 545.148C191.919 545.415 192.305 545.727 192.578 546.085C192.857 546.443 193.072 546.759 193.226 547.031H193.379V540.545H195.928V558H193.439V555.963H193.226C193.072 556.241 192.851 556.56 192.561 556.918C192.277 557.276 191.885 557.588 191.385 557.855C190.885 558.122 190.237 558.256 189.442 558.256ZM190.004 556.082C190.737 556.082 191.357 555.889 191.862 555.503C192.374 555.111 192.76 554.568 193.021 553.875C193.288 553.182 193.422 552.375 193.422 551.455C193.422 550.545 193.291 549.75 193.03 549.068C192.768 548.386 192.385 547.855 191.879 547.474C191.374 547.094 190.749 546.903 190.004 546.903C189.237 546.903 188.598 547.102 188.087 547.5C187.575 547.898 187.189 548.44 186.928 549.128C186.672 549.815 186.544 550.591 186.544 551.455C186.544 552.33 186.675 553.116 186.936 553.815C187.197 554.514 187.584 555.068 188.095 555.477C188.612 555.881 189.249 556.082 190.004 556.082ZM199.565 558V544.909H202.113V558H199.565ZM200.852 542.889C200.408 542.889 200.028 542.741 199.71 542.446C199.397 542.145 199.241 541.787 199.241 541.372C199.241 540.952 199.397 540.594 199.71 540.298C200.028 539.997 200.408 539.847 200.852 539.847C201.295 539.847 201.673 539.997 201.985 540.298C202.303 540.594 202.462 540.952 202.462 541.372C202.462 541.787 202.303 542.145 201.985 542.446C201.673 542.741 201.295 542.889 200.852 542.889ZM208.089 550.227V558H205.541V544.909H207.987V547.04H208.149C208.45 546.347 208.922 545.79 209.564 545.369C210.212 544.949 211.027 544.739 212.01 544.739C212.902 544.739 213.683 544.926 214.354 545.301C215.024 545.67 215.544 546.222 215.913 546.955C216.283 547.687 216.467 548.594 216.467 549.673V558H213.919V549.98C213.919 549.031 213.672 548.29 213.178 547.756C212.683 547.216 212.004 546.946 211.141 546.946C210.55 546.946 210.024 547.074 209.564 547.33C209.109 547.585 208.749 547.96 208.482 548.455C208.22 548.943 208.089 549.534 208.089 550.227ZM225.374 563.182C224.334 563.182 223.439 563.045 222.689 562.773C221.945 562.5 221.337 562.139 220.865 561.69C220.393 561.241 220.041 560.75 219.808 560.216L221.999 559.312C222.152 559.562 222.357 559.827 222.612 560.105C222.874 560.389 223.226 560.631 223.669 560.83C224.118 561.028 224.695 561.128 225.399 561.128C226.365 561.128 227.163 560.892 227.794 560.42C228.425 559.955 228.74 559.21 228.74 558.188V555.614H228.578C228.425 555.892 228.203 556.202 227.913 556.543C227.629 556.884 227.237 557.179 226.737 557.429C226.237 557.679 225.587 557.804 224.786 557.804C223.751 557.804 222.82 557.562 221.99 557.08C221.166 556.591 220.513 555.872 220.03 554.923C219.553 553.969 219.314 552.795 219.314 551.403C219.314 550.011 219.55 548.818 220.021 547.824C220.499 546.83 221.152 546.068 221.982 545.54C222.811 545.006 223.751 544.739 224.803 544.739C225.615 544.739 226.271 544.875 226.771 545.148C227.271 545.415 227.661 545.727 227.939 546.085C228.223 546.443 228.442 546.759 228.595 547.031H228.783V544.909H231.28V558.29C231.28 559.415 231.018 560.338 230.496 561.06C229.973 561.781 229.266 562.315 228.374 562.662C227.487 563.009 226.487 563.182 225.374 563.182ZM225.348 555.69C226.081 555.69 226.7 555.52 227.206 555.179C227.717 554.832 228.104 554.338 228.365 553.696C228.632 553.048 228.766 552.273 228.766 551.369C228.766 550.489 228.635 549.713 228.374 549.043C228.112 548.372 227.729 547.849 227.223 547.474C226.717 547.094 226.092 546.903 225.348 546.903C224.581 546.903 223.942 547.102 223.43 547.5C222.919 547.892 222.533 548.426 222.271 549.102C222.016 549.778 221.888 550.534 221.888 551.369C221.888 552.227 222.018 552.98 222.28 553.628C222.541 554.276 222.928 554.781 223.439 555.145C223.956 555.509 224.592 555.69 225.348 555.69ZM247.16 544.909V546.955H240.009V544.909H247.16ZM241.927 541.773H244.475V554.156C244.475 554.651 244.549 555.023 244.697 555.273C244.844 555.517 245.035 555.685 245.268 555.776C245.506 555.861 245.765 555.903 246.043 555.903C246.248 555.903 246.427 555.889 246.58 555.861C246.734 555.832 246.853 555.81 246.938 555.793L247.398 557.898C247.251 557.955 247.04 558.011 246.768 558.068C246.495 558.131 246.154 558.165 245.745 558.17C245.075 558.182 244.45 558.062 243.87 557.812C243.29 557.562 242.822 557.176 242.464 556.653C242.106 556.131 241.927 555.474 241.927 554.685V541.773ZM252.808 550.227V558H250.26V540.545H252.774V547.04H252.936C253.243 546.335 253.712 545.776 254.342 545.361C254.973 544.946 255.797 544.739 256.814 544.739C257.712 544.739 258.496 544.923 259.166 545.293C259.842 545.662 260.365 546.213 260.734 546.946C261.109 547.673 261.297 548.582 261.297 549.673V558H258.749V549.98C258.749 549.02 258.501 548.276 258.007 547.747C257.513 547.213 256.825 546.946 255.945 546.946C255.342 546.946 254.803 547.074 254.325 547.33C253.854 547.585 253.482 547.96 253.209 548.455C252.942 548.943 252.808 549.534 252.808 550.227ZM270.339 558.264C269.05 558.264 267.939 557.989 267.007 557.438C266.081 556.881 265.365 556.099 264.859 555.094C264.359 554.082 264.109 552.898 264.109 551.54C264.109 550.199 264.359 549.017 264.859 547.994C265.365 546.972 266.07 546.173 266.973 545.599C267.882 545.026 268.945 544.739 270.161 544.739C270.899 544.739 271.615 544.861 272.308 545.105C273.001 545.349 273.624 545.733 274.175 546.256C274.726 546.778 275.161 547.457 275.479 548.293C275.797 549.122 275.956 550.131 275.956 551.318V552.222H265.55V550.312H273.459C273.459 549.642 273.322 549.048 273.05 548.531C272.777 548.009 272.393 547.597 271.899 547.295C271.411 546.994 270.837 546.844 270.178 546.844C269.462 546.844 268.837 547.02 268.303 547.372C267.774 547.719 267.365 548.173 267.075 548.736C266.791 549.293 266.649 549.898 266.649 550.551V552.043C266.649 552.918 266.803 553.662 267.109 554.276C267.422 554.889 267.857 555.358 268.413 555.682C268.97 556 269.621 556.159 270.365 556.159C270.848 556.159 271.288 556.091 271.686 555.955C272.084 555.812 272.428 555.602 272.717 555.324C273.007 555.045 273.229 554.702 273.382 554.293L275.794 554.727C275.601 555.437 275.254 556.06 274.754 556.594C274.26 557.122 273.638 557.534 272.888 557.83C272.143 558.119 271.294 558.264 270.339 558.264ZM285.339 540.545H288.536L294.092 554.114H294.297L299.854 540.545H303.05V558H300.544V545.369H300.382L295.234 557.974H293.155L288.007 545.361H287.845V558H285.339V540.545ZM310.484 558.29C309.654 558.29 308.904 558.136 308.234 557.83C307.563 557.517 307.032 557.065 306.64 556.474C306.254 555.884 306.06 555.159 306.06 554.301C306.06 553.562 306.202 552.955 306.487 552.477C306.771 552 307.154 551.622 307.637 551.344C308.12 551.065 308.66 550.855 309.256 550.713C309.853 550.571 310.461 550.463 311.08 550.389C311.864 550.298 312.501 550.224 312.989 550.168C313.478 550.105 313.833 550.006 314.055 549.869C314.276 549.733 314.387 549.511 314.387 549.205V549.145C314.387 548.401 314.177 547.824 313.756 547.415C313.342 547.006 312.722 546.801 311.898 546.801C311.04 546.801 310.364 546.991 309.87 547.372C309.381 547.747 309.043 548.165 308.856 548.625L306.461 548.08C306.745 547.284 307.16 546.642 307.705 546.153C308.256 545.659 308.89 545.301 309.606 545.08C310.322 544.852 311.075 544.739 311.864 544.739C312.387 544.739 312.941 544.801 313.526 544.926C314.117 545.045 314.668 545.267 315.18 545.591C315.697 545.915 316.12 546.378 316.45 546.98C316.779 547.577 316.944 548.352 316.944 549.307V558H314.455V556.21H314.353C314.188 556.54 313.941 556.864 313.612 557.182C313.282 557.5 312.859 557.764 312.342 557.974C311.825 558.185 311.205 558.29 310.484 558.29ZM311.038 556.244C311.742 556.244 312.344 556.105 312.844 555.827C313.35 555.548 313.734 555.185 313.995 554.736C314.262 554.281 314.396 553.795 314.396 553.278V551.591C314.305 551.682 314.129 551.767 313.867 551.847C313.612 551.92 313.319 551.986 312.989 552.043C312.66 552.094 312.339 552.142 312.026 552.188C311.714 552.227 311.452 552.261 311.242 552.29C310.748 552.352 310.296 552.457 309.887 552.605C309.484 552.753 309.16 552.966 308.915 553.244C308.677 553.517 308.558 553.881 308.558 554.335C308.558 554.966 308.79 555.443 309.256 555.767C309.722 556.085 310.316 556.244 311.038 556.244ZM320.338 558V544.909H322.801V546.989H322.938C323.176 546.284 323.597 545.73 324.199 545.327C324.807 544.918 325.494 544.713 326.261 544.713C326.42 544.713 326.608 544.719 326.824 544.73C327.045 544.741 327.219 544.756 327.344 544.773V547.21C327.241 547.182 327.06 547.151 326.798 547.116C326.537 547.077 326.276 547.057 326.014 547.057C325.412 547.057 324.875 547.185 324.403 547.44C323.938 547.69 323.568 548.04 323.295 548.489C323.023 548.932 322.886 549.437 322.886 550.006V558H320.338ZM331.893 553.56L331.876 550.449H332.319L337.535 544.909H340.586L334.637 551.216H334.237L331.893 553.56ZM329.549 558V540.545H332.097V558H329.549ZM337.816 558L333.129 551.778L334.884 549.997L340.944 558H337.816ZM348.011 558.264C346.722 558.264 345.611 557.989 344.679 557.438C343.753 556.881 343.037 556.099 342.531 555.094C342.031 554.082 341.781 552.898 341.781 551.54C341.781 550.199 342.031 549.017 342.531 547.994C343.037 546.972 343.741 546.173 344.645 545.599C345.554 545.026 346.616 544.739 347.832 544.739C348.571 544.739 349.287 544.861 349.98 545.105C350.673 545.349 351.295 545.733 351.847 546.256C352.398 546.778 352.832 547.457 353.151 548.293C353.469 549.122 353.628 550.131 353.628 551.318V552.222H343.222V550.312H351.131C351.131 549.642 350.994 549.048 350.722 548.531C350.449 548.009 350.065 547.597 349.571 547.295C349.082 546.994 348.509 546.844 347.849 546.844C347.134 546.844 346.509 547.02 345.974 547.372C345.446 547.719 345.037 548.173 344.747 548.736C344.463 549.293 344.321 549.898 344.321 550.551V552.043C344.321 552.918 344.474 553.662 344.781 554.276C345.094 554.889 345.528 555.358 346.085 555.682C346.642 556 347.293 556.159 348.037 556.159C348.52 556.159 348.96 556.091 349.358 555.955C349.756 555.812 350.099 555.602 350.389 555.324C350.679 555.045 350.901 554.702 351.054 554.293L353.466 554.727C353.273 555.437 352.926 556.06 352.426 556.594C351.932 557.122 351.31 557.534 350.56 557.83C349.815 558.119 348.966 558.264 348.011 558.264ZM362.566 544.909V546.955H355.415V544.909H362.566ZM357.333 541.773H359.881V554.156C359.881 554.651 359.955 555.023 360.103 555.273C360.251 555.517 360.441 555.685 360.674 555.776C360.913 555.861 361.171 555.903 361.45 555.903C361.654 555.903 361.833 555.889 361.987 555.861C362.14 555.832 362.259 555.81 362.344 555.793L362.805 557.898C362.657 557.955 362.447 558.011 362.174 558.068C361.901 558.131 361.56 558.165 361.151 558.17C360.481 558.182 359.856 558.062 359.276 557.812C358.697 557.562 358.228 557.176 357.87 556.653C357.512 556.131 357.333 555.474 357.333 554.685V541.773Z" fill="white"/>
<rect x="474" y="415" width="108" height="108" rx="54" fill="url(#paint7_linear_1_235)"/>
<rect x="485" y="426" width="86" height="86" rx="43" fill="white"/>
<rect x="485" y="426" width="86" height="86" rx="43" stroke="url(#paint8_linear_1_235)" stroke-width="2"/>
<path d="M527.87 447.788L522.648 459.943H517.427C516.56 459.943 515.715 460.008 514.892 460.182L517.058 454.982L517.145 454.787L517.275 454.44C517.34 454.288 517.383 454.158 517.448 454.05C519.962 448.222 522.778 446.402 527.87 447.788Z" fill="url(#paint9_linear_1_235)"/>
<path d="M542.582 460.528L542.538 460.507C541.238 460.138 539.917 459.943 538.573 459.943H525.01L529.885 448.612L529.95 448.46C530.253 448.568 530.578 448.72 530.903 448.828L535.692 450.843C538.357 451.948 540.22 453.097 541.368 454.483C541.563 454.743 541.737 454.982 541.91 455.263C542.105 455.567 542.257 455.87 542.343 456.195C542.43 456.39 542.495 456.563 542.538 456.758C542.863 457.863 542.885 459.12 542.582 460.528Z" fill="url(#paint10_linear_1_235)"/>
<path d="M529.127 481.263H529.668C530.318 481.263 530.86 480.678 530.86 479.963C530.86 479.053 530.6 478.923 530.037 478.707L529.127 478.382V481.263Z" fill="url(#paint11_linear_1_235)"/>
<path d="M541.628 463.627C540.653 463.345 539.635 463.193 538.573 463.193H517.427C515.953 463.193 514.567 463.475 513.267 464.038C509.497 465.663 506.853 469.412 506.853 473.767V477.992C506.853 478.512 506.897 479.01 506.962 479.53C507.438 486.42 511.122 490.103 518.012 490.558C518.51 490.623 519.008 490.667 519.55 490.667H536.45C544.467 490.667 548.692 486.853 549.103 479.27C549.125 478.858 549.147 478.425 549.147 477.992V473.767C549.147 468.978 545.962 464.948 541.628 463.627ZM530.773 476.583C531.77 476.93 533.113 477.667 533.113 479.963C533.113 481.935 531.575 483.517 529.668 483.517H529.127V483.993C529.127 484.622 528.628 485.12 528 485.12C527.372 485.12 526.873 484.622 526.873 483.993V483.517H526.678C524.598 483.517 522.887 481.762 522.887 479.595C522.887 478.967 523.385 478.468 524.013 478.468C524.642 478.468 525.14 478.967 525.14 479.595C525.14 480.505 525.833 481.263 526.678 481.263H526.873V477.602L525.227 477.017C524.23 476.67 522.887 475.933 522.887 473.637C522.887 471.665 524.425 470.083 526.332 470.083H526.873V469.607C526.873 468.978 527.372 468.48 528 468.48C528.628 468.48 529.127 468.978 529.127 469.607V470.083H529.322C531.402 470.083 533.113 471.838 533.113 474.005C533.113 474.633 532.615 475.132 531.987 475.132C531.358 475.132 530.86 474.633 530.86 474.005C530.86 473.095 530.167 472.337 529.322 472.337H529.127V475.998L530.773 476.583Z" fill="url(#paint12_linear_1_235)"/>
<path d="M525.14 473.637C525.14 474.547 525.4 474.677 525.963 474.893L526.873 475.218V472.337H526.332C525.66 472.337 525.14 472.922 525.14 473.637Z" fill="url(#paint13_linear_1_235)"/>
<path d="M461.376 546.222H458.717C458.614 545.653 458.424 545.153 458.146 544.722C457.867 544.29 457.526 543.923 457.123 543.622C456.719 543.321 456.268 543.094 455.768 542.94C455.273 542.787 454.748 542.71 454.191 542.71C453.185 542.71 452.285 542.963 451.489 543.469C450.7 543.974 450.075 544.716 449.614 545.693C449.16 546.67 448.933 547.864 448.933 549.273C448.933 550.693 449.16 551.892 449.614 552.869C450.075 553.847 450.702 554.585 451.498 555.085C452.293 555.585 453.188 555.835 454.183 555.835C454.734 555.835 455.256 555.761 455.751 555.614C456.251 555.46 456.702 555.236 457.106 554.94C457.509 554.645 457.85 554.284 458.129 553.858C458.413 553.426 458.609 552.932 458.717 552.375L461.376 552.384C461.234 553.241 460.958 554.031 460.549 554.753C460.146 555.469 459.626 556.088 458.989 556.611C458.359 557.128 457.637 557.528 456.825 557.812C456.012 558.097 455.126 558.239 454.165 558.239C452.654 558.239 451.308 557.881 450.126 557.165C448.944 556.443 448.012 555.412 447.33 554.071C446.654 552.73 446.316 551.131 446.316 549.273C446.316 547.409 446.657 545.81 447.339 544.474C448.021 543.134 448.952 542.105 450.134 541.389C451.316 540.668 452.66 540.307 454.165 540.307C455.092 540.307 455.955 540.44 456.756 540.707C457.563 540.969 458.288 541.355 458.93 541.866C459.572 542.372 460.103 542.991 460.523 543.724C460.944 544.452 461.228 545.284 461.376 546.222ZM469.837 558.264C468.609 558.264 467.538 557.983 466.624 557.42C465.709 556.858 464.999 556.071 464.493 555.06C463.987 554.048 463.734 552.866 463.734 551.514C463.734 550.156 463.987 548.969 464.493 547.952C464.999 546.935 465.709 546.145 466.624 545.582C467.538 545.02 468.609 544.739 469.837 544.739C471.064 544.739 472.135 545.02 473.05 545.582C473.964 546.145 474.675 546.935 475.18 547.952C475.686 548.969 475.939 550.156 475.939 551.514C475.939 552.866 475.686 554.048 475.18 555.06C474.675 556.071 473.964 556.858 473.05 557.42C472.135 557.983 471.064 558.264 469.837 558.264ZM469.845 556.125C470.641 556.125 471.3 555.915 471.822 555.494C472.345 555.074 472.732 554.514 472.982 553.815C473.237 553.116 473.365 552.347 473.365 551.506C473.365 550.67 473.237 549.903 472.982 549.205C472.732 548.5 472.345 547.935 471.822 547.509C471.3 547.082 470.641 546.869 469.845 546.869C469.044 546.869 468.379 547.082 467.851 547.509C467.328 547.935 466.939 548.5 466.683 549.205C466.433 549.903 466.308 550.67 466.308 551.506C466.308 552.347 466.433 553.116 466.683 553.815C466.939 554.514 467.328 555.074 467.851 555.494C468.379 555.915 469.044 556.125 469.845 556.125ZM488.593 548.105L486.283 548.514C486.187 548.219 486.033 547.937 485.823 547.67C485.619 547.403 485.34 547.185 484.988 547.014C484.636 546.844 484.195 546.759 483.667 546.759C482.945 546.759 482.343 546.92 481.86 547.244C481.377 547.562 481.136 547.974 481.136 548.48C481.136 548.918 481.298 549.27 481.621 549.537C481.945 549.804 482.468 550.023 483.19 550.193L485.269 550.67C486.474 550.949 487.371 551.378 487.962 551.957C488.553 552.537 488.849 553.29 488.849 554.216C488.849 555 488.621 555.699 488.167 556.312C487.718 556.92 487.09 557.398 486.283 557.744C485.482 558.091 484.553 558.264 483.496 558.264C482.031 558.264 480.835 557.952 479.908 557.327C478.982 556.696 478.414 555.801 478.204 554.642L480.667 554.267C480.82 554.909 481.136 555.395 481.613 555.724C482.09 556.048 482.712 556.21 483.479 556.21C484.315 556.21 484.982 556.037 485.482 555.69C485.982 555.338 486.232 554.909 486.232 554.403C486.232 553.994 486.079 553.651 485.772 553.372C485.471 553.094 485.008 552.884 484.383 552.741L482.167 552.256C480.945 551.977 480.042 551.534 479.457 550.926C478.877 550.318 478.587 549.548 478.587 548.616C478.587 547.844 478.803 547.168 479.235 546.588C479.667 546.009 480.263 545.557 481.025 545.233C481.786 544.903 482.658 544.739 483.641 544.739C485.056 544.739 486.17 545.045 486.982 545.659C487.795 546.267 488.332 547.082 488.593 548.105ZM497.761 544.909V546.955H490.611V544.909H497.761ZM492.528 541.773H495.077V554.156C495.077 554.651 495.151 555.023 495.298 555.273C495.446 555.517 495.636 555.685 495.869 555.776C496.108 555.861 496.366 555.903 496.645 555.903C496.849 555.903 497.028 555.889 497.182 555.861C497.335 555.832 497.455 555.81 497.54 555.793L498 557.898C497.852 557.955 497.642 558.011 497.369 558.068C497.097 558.131 496.756 558.165 496.347 558.17C495.676 558.182 495.051 558.062 494.472 557.812C493.892 557.562 493.423 557.176 493.065 556.653C492.707 556.131 492.528 555.474 492.528 554.685V541.773ZM507.848 549.52V551.727H500.109V549.52H507.848ZM511.449 558V540.545H522.392V542.812H514.082V548.131H521.821V550.389H514.082V555.733H522.494V558H511.449ZM531.935 544.909V546.955H524.538V544.909H531.935ZM526.566 558V543.392C526.566 542.574 526.745 541.895 527.103 541.355C527.461 540.81 527.935 540.403 528.526 540.136C529.117 539.864 529.759 539.727 530.452 539.727C530.964 539.727 531.401 539.77 531.765 539.855C532.129 539.935 532.398 540.009 532.575 540.077L531.978 542.139C531.859 542.105 531.705 542.065 531.518 542.02C531.33 541.969 531.103 541.943 530.836 541.943C530.217 541.943 529.773 542.097 529.506 542.403C529.245 542.71 529.114 543.153 529.114 543.733V558H526.566ZM540.795 544.909V546.955H533.397V544.909H540.795ZM535.425 558V543.392C535.425 542.574 535.604 541.895 535.962 541.355C536.32 540.81 536.795 540.403 537.386 540.136C537.977 539.864 538.619 539.727 539.312 539.727C539.823 539.727 540.261 539.77 540.624 539.855C540.988 539.935 541.258 540.009 541.434 540.077L540.837 542.139C540.718 542.105 540.565 542.065 540.377 542.02C540.19 541.969 539.962 541.943 539.695 541.943C539.076 541.943 538.633 542.097 538.366 542.403C538.104 542.71 537.974 543.153 537.974 543.733V558H535.425ZM548.55 558.264C547.261 558.264 546.15 557.989 545.218 557.438C544.292 556.881 543.576 556.099 543.07 555.094C542.57 554.082 542.32 552.898 542.32 551.54C542.32 550.199 542.57 549.017 543.07 547.994C543.576 546.972 544.281 546.173 545.184 545.599C546.093 545.026 547.156 544.739 548.371 544.739C549.11 544.739 549.826 544.861 550.519 545.105C551.212 545.349 551.835 545.733 552.386 546.256C552.937 546.778 553.371 547.457 553.69 548.293C554.008 549.122 554.167 550.131 554.167 551.318V552.222H543.761V550.312H551.67C551.67 549.642 551.533 549.048 551.261 548.531C550.988 548.009 550.604 547.597 550.11 547.295C549.621 546.994 549.048 546.844 548.388 546.844C547.673 546.844 547.048 547.02 546.513 547.372C545.985 547.719 545.576 548.173 545.286 548.736C545.002 549.293 544.86 549.898 544.86 550.551V552.043C544.86 552.918 545.013 553.662 545.32 554.276C545.633 554.889 546.067 555.358 546.624 555.682C547.181 556 547.832 556.159 548.576 556.159C549.059 556.159 549.499 556.091 549.897 555.955C550.295 555.812 550.638 555.602 550.928 555.324C551.218 555.045 551.44 554.702 551.593 554.293L554.005 554.727C553.812 555.437 553.465 556.06 552.965 556.594C552.471 557.122 551.849 557.534 551.099 557.83C550.354 558.119 549.505 558.264 548.55 558.264ZM562.509 558.264C561.241 558.264 560.151 557.977 559.236 557.403C558.327 556.824 557.628 556.026 557.139 555.009C556.651 553.991 556.406 552.827 556.406 551.514C556.406 550.185 556.656 549.011 557.156 547.994C557.656 546.972 558.361 546.173 559.27 545.599C560.179 545.026 561.25 544.739 562.483 544.739C563.477 544.739 564.364 544.923 565.142 545.293C565.92 545.656 566.548 546.168 567.026 546.827C567.509 547.486 567.795 548.256 567.886 549.136H565.406C565.27 548.523 564.957 547.994 564.469 547.551C563.986 547.108 563.338 546.886 562.526 546.886C561.815 546.886 561.193 547.074 560.659 547.449C560.131 547.818 559.719 548.347 559.423 549.034C559.128 549.716 558.98 550.523 558.98 551.455C558.98 552.409 559.125 553.233 559.415 553.926C559.705 554.619 560.114 555.156 560.642 555.537C561.176 555.918 561.804 556.108 562.526 556.108C563.009 556.108 563.446 556.02 563.838 555.844C564.236 555.662 564.568 555.403 564.835 555.068C565.108 554.733 565.298 554.33 565.406 553.858H567.886C567.795 554.705 567.52 555.46 567.06 556.125C566.599 556.79 565.983 557.312 565.21 557.693C564.443 558.074 563.543 558.264 562.509 558.264ZM576.722 544.909V546.955H569.572V544.909H576.722ZM571.489 541.773H574.038V554.156C574.038 554.651 574.112 555.023 574.259 555.273C574.407 555.517 574.597 555.685 574.83 555.776C575.069 555.861 575.327 555.903 575.606 555.903C575.81 555.903 575.989 555.889 576.143 555.861C576.296 555.832 576.415 555.81 576.501 555.793L576.961 557.898C576.813 557.955 576.603 558.011 576.33 558.068C576.058 558.131 575.717 558.165 575.308 558.17C574.637 558.182 574.012 558.062 573.433 557.812C572.853 557.562 572.384 557.176 572.026 556.653C571.668 556.131 571.489 555.474 571.489 554.685V541.773ZM579.541 558V544.909H582.089V558H579.541ZM580.828 542.889C580.385 542.889 580.004 542.741 579.686 542.446C579.374 542.145 579.217 541.787 579.217 541.372C579.217 540.952 579.374 540.594 579.686 540.298C580.004 539.997 580.385 539.847 580.828 539.847C581.271 539.847 581.649 539.997 581.962 540.298C582.28 540.594 582.439 540.952 582.439 541.372C582.439 541.787 582.28 542.145 581.962 542.446C581.649 542.741 581.271 542.889 580.828 542.889ZM596.717 544.909L591.969 558H589.242L584.487 544.909H587.222L590.538 554.983H590.674L593.981 544.909H596.717ZM604.308 558.264C603.018 558.264 601.908 557.989 600.976 557.438C600.05 556.881 599.334 556.099 598.828 555.094C598.328 554.082 598.078 552.898 598.078 551.54C598.078 550.199 598.328 549.017 598.828 547.994C599.334 546.972 600.038 546.173 600.942 545.599C601.851 545.026 602.913 544.739 604.129 544.739C604.868 544.739 605.584 544.861 606.277 545.105C606.97 545.349 607.592 545.733 608.143 546.256C608.695 546.778 609.129 547.457 609.447 548.293C609.766 549.122 609.925 550.131 609.925 551.318V552.222H599.518V550.312H607.428C607.428 549.642 607.291 549.048 607.018 548.531C606.746 548.009 606.362 547.597 605.868 547.295C605.379 546.994 604.805 546.844 604.146 546.844C603.43 546.844 602.805 547.02 602.271 547.372C601.743 547.719 601.334 548.173 601.044 548.736C600.76 549.293 600.618 549.898 600.618 550.551V552.043C600.618 552.918 600.771 553.662 601.078 554.276C601.391 554.889 601.825 555.358 602.382 555.682C602.939 556 603.589 556.159 604.334 556.159C604.817 556.159 605.257 556.091 605.655 555.955C606.053 555.812 606.396 555.602 606.686 555.324C606.976 555.045 607.197 554.702 607.351 554.293L609.763 554.727C609.57 555.437 609.223 556.06 608.723 556.594C608.229 557.122 607.607 557.534 606.857 557.83C606.112 558.119 605.263 558.264 604.308 558.264Z" fill="white"/>
<rect x="764" y="415" width="108" height="108" rx="54" fill="url(#paint14_linear_1_235)"/>
<rect x="775" y="426" width="86" height="86" rx="43" fill="white"/>
<rect x="775" y="426" width="86" height="86" rx="43" stroke="url(#paint15_linear_1_235)" stroke-width="2"/>
<path d="M804.437 477.667C804.675 476.605 804.242 475.088 803.483 474.33L798.218 469.065C796.572 467.418 795.922 465.663 796.398 464.147C796.897 462.63 798.435 461.59 800.732 461.2L807.492 460.073C808.467 459.9 809.658 459.033 810.113 458.145L813.84 450.67C814.923 448.525 816.397 447.333 818 447.333C819.603 447.333 821.077 448.525 822.16 450.67L825.887 458.145C826.168 458.708 826.753 459.25 827.382 459.618L804.047 482.953C803.743 483.257 803.223 482.975 803.31 482.542L804.437 477.667Z" fill="url(#paint16_linear_1_235)"/>
<path d="M832.517 474.33C831.737 475.11 831.303 476.605 831.563 477.667L833.058 484.188C833.687 486.897 833.297 488.933 831.953 489.908C831.412 490.298 830.762 490.493 830.003 490.493C828.898 490.493 827.598 490.082 826.168 489.237L819.82 485.467C818.823 484.882 817.177 484.882 816.18 485.467L809.832 489.237C807.427 490.645 805.368 490.883 804.047 489.908C803.548 489.54 803.18 489.042 802.942 488.392L829.288 462.045C830.285 461.048 831.693 460.593 833.058 460.832L835.247 461.2C837.543 461.59 839.082 462.63 839.58 464.147C840.057 465.663 839.407 467.418 837.76 469.065L832.517 474.33Z" fill="url(#paint17_linear_1_235)"/>
<path d="M716.757 540.545H719.953L725.51 554.114H725.715L731.272 540.545H734.468V558H731.962V545.369H731.8L726.652 557.974H724.573L719.425 545.361H719.263V558H716.757V540.545ZM743.606 558.264C742.379 558.264 741.308 557.983 740.393 557.42C739.478 556.858 738.768 556.071 738.262 555.06C737.757 554.048 737.504 552.866 737.504 551.514C737.504 550.156 737.757 548.969 738.262 547.952C738.768 546.935 739.478 546.145 740.393 545.582C741.308 545.02 742.379 544.739 743.606 544.739C744.833 544.739 745.904 545.02 746.819 545.582C747.734 546.145 748.444 546.935 748.95 547.952C749.456 548.969 749.708 550.156 749.708 551.514C749.708 552.866 749.456 554.048 748.95 555.06C748.444 556.071 747.734 556.858 746.819 557.42C745.904 557.983 744.833 558.264 743.606 558.264ZM743.615 556.125C744.41 556.125 745.069 555.915 745.592 555.494C746.115 555.074 746.501 554.514 746.751 553.815C747.007 553.116 747.135 552.347 747.135 551.506C747.135 550.67 747.007 549.903 746.751 549.205C746.501 548.5 746.115 547.935 745.592 547.509C745.069 547.082 744.41 546.869 743.615 546.869C742.814 546.869 742.149 547.082 741.62 547.509C741.098 547.935 740.708 548.5 740.453 549.205C740.203 549.903 740.078 550.67 740.078 551.506C740.078 552.347 740.203 553.116 740.453 553.815C740.708 554.514 741.098 555.074 741.62 555.494C742.149 555.915 742.814 556.125 743.615 556.125ZM752.553 558V544.909H755.016V546.989H755.152C755.391 546.284 755.811 545.73 756.414 545.327C757.022 544.918 757.709 544.713 758.476 544.713C758.635 544.713 758.823 544.719 759.039 544.73C759.26 544.741 759.434 544.756 759.559 544.773V547.21C759.456 547.182 759.275 547.151 759.013 547.116C758.752 547.077 758.49 547.057 758.229 547.057C757.627 547.057 757.09 547.185 756.618 547.44C756.152 547.69 755.783 548.04 755.51 548.489C755.238 548.932 755.101 549.437 755.101 550.006V558H752.553ZM766.937 558.264C765.647 558.264 764.537 557.989 763.605 557.438C762.679 556.881 761.963 556.099 761.457 555.094C760.957 554.082 760.707 552.898 760.707 551.54C760.707 550.199 760.957 549.017 761.457 547.994C761.963 546.972 762.667 546.173 763.571 545.599C764.48 545.026 765.542 544.739 766.758 544.739C767.497 544.739 768.213 544.861 768.906 545.105C769.599 545.349 770.221 545.733 770.772 546.256C771.324 546.778 771.758 547.457 772.076 548.293C772.395 549.122 772.554 550.131 772.554 551.318V552.222H762.147V550.312H770.056C770.056 549.642 769.92 549.048 769.647 548.531C769.375 548.009 768.991 547.597 768.497 547.295C768.008 546.994 767.434 546.844 766.775 546.844C766.059 546.844 765.434 547.02 764.9 547.372C764.372 547.719 763.963 548.173 763.673 548.736C763.389 549.293 763.247 549.898 763.247 550.551V552.043C763.247 552.918 763.4 553.662 763.707 554.276C764.02 554.889 764.454 555.358 765.011 555.682C765.568 556 766.218 556.159 766.963 556.159C767.446 556.159 767.886 556.091 768.284 555.955C768.681 555.812 769.025 555.602 769.315 555.324C769.605 555.045 769.826 554.702 769.98 554.293L772.392 554.727C772.199 555.437 771.852 556.06 771.352 556.594C770.858 557.122 770.235 557.534 769.485 557.83C768.741 558.119 767.892 558.264 766.937 558.264ZM781.937 558V540.545H788.159C789.517 540.545 790.642 540.793 791.534 541.287C792.426 541.781 793.093 542.457 793.537 543.315C793.98 544.168 794.201 545.128 794.201 546.196C794.201 547.27 793.977 548.236 793.528 549.094C793.085 549.946 792.414 550.622 791.517 551.122C790.625 551.616 789.502 551.864 788.15 551.864H783.872V549.631H787.912C788.77 549.631 789.466 549.483 790 549.188C790.534 548.886 790.926 548.477 791.176 547.96C791.426 547.443 791.551 546.855 791.551 546.196C791.551 545.537 791.426 544.952 791.176 544.44C790.926 543.929 790.531 543.528 789.991 543.239C789.457 542.949 788.752 542.804 787.877 542.804H784.571V558H781.937ZM797.084 558V544.909H799.547V546.989H799.684C799.922 546.284 800.343 545.73 800.945 545.327C801.553 544.918 802.24 544.713 803.007 544.713C803.167 544.713 803.354 544.719 803.57 544.73C803.792 544.741 803.965 544.756 804.09 544.773V547.21C803.988 547.182 803.806 547.151 803.544 547.116C803.283 547.077 803.022 547.057 802.76 547.057C802.158 547.057 801.621 547.185 801.15 547.44C800.684 547.69 800.314 548.04 800.042 548.489C799.769 548.932 799.632 549.437 799.632 550.006V558H797.084ZM811.341 558.264C810.113 558.264 809.042 557.983 808.127 557.42C807.213 556.858 806.502 556.071 805.997 555.06C805.491 554.048 805.238 552.866 805.238 551.514C805.238 550.156 805.491 548.969 805.997 547.952C806.502 546.935 807.213 546.145 808.127 545.582C809.042 545.02 810.113 544.739 811.341 544.739C812.568 544.739 813.639 545.02 814.554 545.582C815.468 546.145 816.179 546.935 816.684 547.952C817.19 548.969 817.443 550.156 817.443 551.514C817.443 552.866 817.19 554.048 816.684 555.06C816.179 556.071 815.468 556.858 814.554 557.42C813.639 557.983 812.568 558.264 811.341 558.264ZM811.349 556.125C812.145 556.125 812.804 555.915 813.326 555.494C813.849 555.074 814.235 554.514 814.485 553.815C814.741 553.116 814.869 552.347 814.869 551.506C814.869 550.67 814.741 549.903 814.485 549.205C814.235 548.5 813.849 547.935 813.326 547.509C812.804 547.082 812.145 546.869 811.349 546.869C810.548 546.869 809.883 547.082 809.355 547.509C808.832 547.935 808.443 548.5 808.187 549.205C807.937 549.903 807.812 550.67 807.812 551.506C807.812 552.347 807.937 553.116 808.187 553.815C808.443 554.514 808.832 555.074 809.355 555.494C809.883 555.915 810.548 556.125 811.349 556.125ZM826.517 544.909V546.955H819.12V544.909H826.517ZM821.148 558V543.392C821.148 542.574 821.327 541.895 821.685 541.355C822.043 540.81 822.517 540.403 823.108 540.136C823.699 539.864 824.341 539.727 825.034 539.727C825.546 539.727 825.983 539.77 826.347 539.855C826.711 539.935 826.98 540.009 827.157 540.077L826.56 542.139C826.441 542.105 826.287 542.065 826.1 542.02C825.912 541.969 825.685 541.943 825.418 541.943C824.799 541.943 824.355 542.097 824.088 542.403C823.827 542.71 823.696 543.153 823.696 543.733V558H821.148ZM834.273 558.264C832.983 558.264 831.873 557.989 830.941 557.438C830.015 556.881 829.299 556.099 828.793 555.094C828.293 554.082 828.043 552.898 828.043 551.54C828.043 550.199 828.293 549.017 828.793 547.994C829.299 546.972 830.003 546.173 830.907 545.599C831.816 545.026 832.878 544.739 834.094 544.739C834.833 544.739 835.549 544.861 836.242 545.105C836.935 545.349 837.557 545.733 838.108 546.256C838.659 546.778 839.094 547.457 839.412 548.293C839.73 549.122 839.89 550.131 839.89 551.318V552.222H829.483V550.312H837.392C837.392 549.642 837.256 549.048 836.983 548.531C836.711 548.009 836.327 547.597 835.833 547.295C835.344 546.994 834.77 546.844 834.111 546.844C833.395 546.844 832.77 547.02 832.236 547.372C831.708 547.719 831.299 548.173 831.009 548.736C830.725 549.293 830.583 549.898 830.583 550.551V552.043C830.583 552.918 830.736 553.662 831.043 554.276C831.355 554.889 831.79 555.358 832.347 555.682C832.904 556 833.554 556.159 834.299 556.159C834.782 556.159 835.222 556.091 835.62 555.955C836.017 555.812 836.361 555.602 836.651 555.324C836.941 555.045 837.162 554.702 837.316 554.293L839.728 554.727C839.534 555.437 839.188 556.06 838.688 556.594C838.194 557.122 837.571 557.534 836.821 557.83C836.077 558.119 835.228 558.264 834.273 558.264ZM852.527 548.105L850.217 548.514C850.12 548.219 849.967 547.937 849.757 547.67C849.552 547.403 849.274 547.185 848.922 547.014C848.569 546.844 848.129 546.759 847.6 546.759C846.879 546.759 846.277 546.92 845.794 547.244C845.311 547.562 845.069 547.974 845.069 548.48C845.069 548.918 845.231 549.27 845.555 549.537C845.879 549.804 846.402 550.023 847.123 550.193L849.203 550.67C850.407 550.949 851.305 551.378 851.896 551.957C852.487 552.537 852.782 553.29 852.782 554.216C852.782 555 852.555 555.699 852.1 556.312C851.652 556.92 851.024 557.398 850.217 557.744C849.416 558.091 848.487 558.264 847.43 558.264C845.964 558.264 844.768 557.952 843.842 557.327C842.916 556.696 842.348 555.801 842.137 554.642L844.6 554.267C844.754 554.909 845.069 555.395 845.547 555.724C846.024 556.048 846.646 556.21 847.413 556.21C848.248 556.21 848.916 556.037 849.416 555.69C849.916 555.338 850.166 554.909 850.166 554.403C850.166 553.994 850.012 553.651 849.706 553.372C849.404 553.094 848.941 552.884 848.316 552.741L846.1 552.256C844.879 551.977 843.975 551.534 843.39 550.926C842.811 550.318 842.521 549.548 842.521 548.616C842.521 547.844 842.737 547.168 843.169 546.588C843.6 546.009 844.197 545.557 844.958 545.233C845.72 544.903 846.592 544.739 847.575 544.739C848.99 544.739 850.103 545.045 850.916 545.659C851.728 546.267 852.265 547.082 852.527 548.105ZM865.394 548.105L863.084 548.514C862.988 548.219 862.834 547.937 862.624 547.67C862.419 547.403 862.141 547.185 861.789 547.014C861.436 546.844 860.996 546.759 860.468 546.759C859.746 546.759 859.144 546.92 858.661 547.244C858.178 547.562 857.936 547.974 857.936 548.48C857.936 548.918 858.098 549.27 858.422 549.537C858.746 549.804 859.269 550.023 859.99 550.193L862.07 550.67C863.275 550.949 864.172 551.378 864.763 551.957C865.354 552.537 865.65 553.29 865.65 554.216C865.65 555 865.422 555.699 864.968 556.312C864.519 556.92 863.891 557.398 863.084 557.744C862.283 558.091 861.354 558.264 860.297 558.264C858.831 558.264 857.635 557.952 856.709 557.327C855.783 556.696 855.215 555.801 855.005 554.642L857.468 554.267C857.621 554.909 857.936 555.395 858.414 555.724C858.891 556.048 859.513 556.21 860.28 556.21C861.115 556.21 861.783 556.037 862.283 555.69C862.783 555.338 863.033 554.909 863.033 554.403C863.033 553.994 862.88 553.651 862.573 553.372C862.272 553.094 861.809 552.884 861.184 552.741L858.968 552.256C857.746 551.977 856.843 551.534 856.257 550.926C855.678 550.318 855.388 549.548 855.388 548.616C855.388 547.844 855.604 547.168 856.036 546.588C856.468 546.009 857.064 545.557 857.826 545.233C858.587 544.903 859.459 544.739 860.442 544.739C861.857 544.739 862.971 545.045 863.783 545.659C864.596 546.267 865.132 547.082 865.394 548.105ZM868.451 558V544.909H871V558H868.451ZM869.738 542.889C869.295 542.889 868.914 542.741 868.596 542.446C868.284 542.145 868.127 541.787 868.127 541.372C868.127 540.952 868.284 540.594 868.596 540.298C868.914 539.997 869.295 539.847 869.738 539.847C870.181 539.847 870.559 539.997 870.872 540.298C871.19 540.594 871.349 540.952 871.349 541.372C871.349 541.787 871.19 542.145 870.872 542.446C870.559 542.741 870.181 542.889 869.738 542.889ZM879.942 558.264C878.715 558.264 877.644 557.983 876.729 557.42C875.814 556.858 875.104 556.071 874.598 555.06C874.093 554.048 873.84 552.866 873.84 551.514C873.84 550.156 874.093 548.969 874.598 547.952C875.104 546.935 875.814 546.145 876.729 545.582C877.644 545.02 878.715 544.739 879.942 544.739C881.169 544.739 882.24 545.02 883.155 545.582C884.07 546.145 884.78 546.935 885.286 547.952C885.792 548.969 886.044 550.156 886.044 551.514C886.044 552.866 885.792 554.048 885.286 555.06C884.78 556.071 884.07 556.858 883.155 557.42C882.24 557.983 881.169 558.264 879.942 558.264ZM879.951 556.125C880.746 556.125 881.405 555.915 881.928 555.494C882.451 555.074 882.837 554.514 883.087 553.815C883.343 553.116 883.471 552.347 883.471 551.506C883.471 550.67 883.343 549.903 883.087 549.205C882.837 548.5 882.451 547.935 881.928 547.509C881.405 547.082 880.746 546.869 879.951 546.869C879.15 546.869 878.485 547.082 877.956 547.509C877.434 547.935 877.044 548.5 876.789 549.205C876.539 549.903 876.414 550.67 876.414 551.506C876.414 552.347 876.539 553.116 876.789 553.815C877.044 554.514 877.434 555.074 877.956 555.494C878.485 555.915 879.15 556.125 879.951 556.125ZM891.437 550.227V558H888.889V544.909H891.335V547.04H891.497C891.798 546.347 892.27 545.79 892.912 545.369C893.559 544.949 894.375 544.739 895.358 544.739C896.25 544.739 897.031 544.926 897.701 545.301C898.372 545.67 898.892 546.222 899.261 546.955C899.63 547.687 899.815 548.594 899.815 549.673V558H897.267V549.98C897.267 549.031 897.02 548.29 896.525 547.756C896.031 547.216 895.352 546.946 894.488 546.946C893.897 546.946 893.372 547.074 892.912 547.33C892.457 547.585 892.096 547.96 891.829 548.455C891.568 548.943 891.437 549.534 891.437 550.227ZM907.042 558.29C906.213 558.29 905.463 558.136 904.792 557.83C904.122 557.517 903.591 557.065 903.199 556.474C902.812 555.884 902.619 555.159 902.619 554.301C902.619 553.562 902.761 552.955 903.045 552.477C903.329 552 903.713 551.622 904.196 551.344C904.679 551.065 905.218 550.855 905.815 550.713C906.412 550.571 907.02 550.463 907.639 550.389C908.423 550.298 909.059 550.224 909.548 550.168C910.037 550.105 910.392 550.006 910.613 549.869C910.835 549.733 910.946 549.511 910.946 549.205V549.145C910.946 548.401 910.735 547.824 910.315 547.415C909.9 547.006 909.281 546.801 908.457 546.801C907.599 546.801 906.923 546.991 906.429 547.372C905.94 547.747 905.602 548.165 905.414 548.625L903.02 548.08C903.304 547.284 903.718 546.642 904.264 546.153C904.815 545.659 905.449 545.301 906.164 545.08C906.88 544.852 907.633 544.739 908.423 544.739C908.946 544.739 909.5 544.801 910.085 544.926C910.676 545.045 911.227 545.267 911.738 545.591C912.255 545.915 912.679 546.378 913.008 546.98C913.338 547.577 913.502 548.352 913.502 549.307V558H911.014V556.21H910.912C910.747 556.54 910.5 556.864 910.17 557.182C909.841 557.5 909.417 557.764 908.9 557.974C908.383 558.185 907.764 558.29 907.042 558.29ZM907.596 556.244C908.301 556.244 908.903 556.105 909.403 555.827C909.909 555.548 910.292 555.185 910.554 554.736C910.821 554.281 910.954 553.795 910.954 553.278V551.591C910.863 551.682 910.687 551.767 910.426 551.847C910.17 551.92 909.877 551.986 909.548 552.043C909.218 552.094 908.897 552.142 908.585 552.188C908.272 552.227 908.011 552.261 907.801 552.29C907.306 552.352 906.855 552.457 906.446 552.605C906.042 552.753 905.718 552.966 905.474 553.244C905.235 553.517 905.116 553.881 905.116 554.335C905.116 554.966 905.349 555.443 905.815 555.767C906.281 556.085 906.875 556.244 907.596 556.244ZM919.445 540.545V558H916.897V540.545H919.445Z" fill="white"/>
<rect x="1054" y="415" width="108" height="108" rx="54" fill="url(#paint18_linear_1_235)"/>
<rect x="1065" y="426" width="86" height="86" rx="43" fill="white"/>
<rect x="1065" y="426" width="86" height="86" rx="43" stroke="url(#paint19_linear_1_235)" stroke-width="2"/>
<path d="M1101.5 447.333C1095.82 447.333 1091.21 451.948 1091.21 457.625C1091.21 463.193 1095.56 467.7 1101.24 467.895C1101.41 467.873 1101.59 467.873 1101.72 467.895C1101.76 467.895 1101.78 467.895 1101.83 467.895C1101.85 467.895 1101.85 467.895 1101.87 467.895C1107.42 467.7 1111.77 463.193 1111.79 457.625C1111.79 451.948 1107.18 447.333 1101.5 447.333Z" fill="url(#paint20_linear_1_235)"/>
<path d="M1112.51 473.658C1106.46 469.628 1096.6 469.628 1090.52 473.658C1087.76 475.5 1086.25 477.992 1086.25 480.657C1086.25 483.322 1087.76 485.792 1090.49 487.612C1093.53 489.648 1097.51 490.667 1101.5 490.667C1105.49 490.667 1109.47 489.648 1112.51 487.612C1115.24 485.77 1116.75 483.3 1116.75 480.613C1116.73 477.948 1115.24 475.478 1112.51 473.658Z" fill="url(#paint21_linear_1_235)"/>
<path d="M1125.31 458.903C1125.66 463.107 1122.67 466.79 1118.53 467.288C1118.51 467.288 1118.51 467.288 1118.49 467.288H1118.42C1118.29 467.288 1118.16 467.288 1118.05 467.332C1115.95 467.44 1114.02 466.768 1112.57 465.533C1114.8 463.54 1116.08 460.55 1115.82 457.3C1115.67 455.545 1115.06 453.942 1114.15 452.577C1114.98 452.165 1115.93 451.905 1116.91 451.818C1121.15 451.45 1124.94 454.613 1125.31 458.903Z" fill="url(#paint22_linear_1_235)"/>
<path d="M1129.65 478.945C1129.47 481.047 1128.13 482.867 1125.88 484.102C1123.71 485.293 1120.98 485.857 1118.27 485.792C1119.83 484.383 1120.74 482.628 1120.91 480.765C1121.13 478.078 1119.85 475.5 1117.3 473.442C1115.84 472.293 1114.15 471.383 1112.31 470.712C1117.1 469.325 1123.12 470.257 1126.83 473.247C1128.82 474.85 1129.84 476.865 1129.65 478.945Z" fill="url(#paint23_linear_1_235)"/>
<path d="M1035.16 558H1032.37L1038.65 540.545H1041.69L1047.97 558H1045.18L1040.24 543.716H1040.1L1035.16 558ZM1035.63 551.165H1044.7V553.381H1035.63V551.165ZM1055.58 544.909V546.955H1048.43V544.909H1055.58ZM1050.34 541.773H1052.89V554.156C1052.89 554.651 1052.97 555.023 1053.11 555.273C1053.26 555.517 1053.45 555.685 1053.69 555.776C1053.92 555.861 1054.18 555.903 1054.46 555.903C1054.67 555.903 1054.84 555.889 1055 555.861C1055.15 555.832 1055.27 555.81 1055.36 555.793L1055.82 557.898C1055.67 557.955 1055.46 558.011 1055.19 558.068C1054.91 558.131 1054.57 558.165 1054.16 558.17C1053.49 558.182 1052.87 558.062 1052.29 557.812C1051.71 557.562 1051.24 557.176 1050.88 556.653C1050.52 556.131 1050.34 555.474 1050.34 554.685V541.773ZM1064.51 544.909V546.955H1057.36V544.909H1064.51ZM1059.27 541.773H1061.82V554.156C1061.82 554.651 1061.9 555.023 1062.04 555.273C1062.19 555.517 1062.38 555.685 1062.62 555.776C1062.85 555.861 1063.11 555.903 1063.39 555.903C1063.6 555.903 1063.77 555.889 1063.93 555.861C1064.08 555.832 1064.2 555.81 1064.29 555.793L1064.75 557.898C1064.6 557.955 1064.39 558.011 1064.12 558.068C1063.84 558.131 1063.5 558.165 1063.09 558.17C1062.42 558.182 1061.8 558.062 1061.22 557.812C1060.64 557.562 1060.17 557.176 1059.81 556.653C1059.45 556.131 1059.27 555.474 1059.27 554.685V541.773ZM1067.33 558V544.909H1069.79V546.989H1069.93C1070.16 546.284 1070.58 545.73 1071.19 545.327C1071.8 544.918 1072.48 544.713 1073.25 544.713C1073.41 544.713 1073.6 544.719 1073.81 544.73C1074.03 544.741 1074.21 544.756 1074.33 544.773V547.21C1074.23 547.182 1074.05 547.151 1073.79 547.116C1073.53 547.077 1073.26 547.057 1073 547.057C1072.4 547.057 1071.86 547.185 1071.39 547.44C1070.93 547.69 1070.56 548.04 1070.28 548.489C1070.01 548.932 1069.87 549.437 1069.87 550.006V558H1067.33ZM1080.23 558.29C1079.4 558.29 1078.65 558.136 1077.98 557.83C1077.31 557.517 1076.78 557.065 1076.39 556.474C1076 555.884 1075.81 555.159 1075.81 554.301C1075.81 553.562 1075.95 552.955 1076.23 552.477C1076.52 552 1076.9 551.622 1077.38 551.344C1077.87 551.065 1078.41 550.855 1079 550.713C1079.6 550.571 1080.21 550.463 1080.83 550.389C1081.61 550.298 1082.25 550.224 1082.74 550.168C1083.22 550.105 1083.58 550.006 1083.8 549.869C1084.02 549.733 1084.13 549.511 1084.13 549.205V549.145C1084.13 548.401 1083.92 547.824 1083.5 547.415C1083.09 547.006 1082.47 546.801 1081.64 546.801C1080.79 546.801 1080.11 546.991 1079.62 547.372C1079.13 547.747 1078.79 548.165 1078.6 548.625L1076.21 548.08C1076.49 547.284 1076.91 546.642 1077.45 546.153C1078 545.659 1078.64 545.301 1079.35 545.08C1080.07 544.852 1080.82 544.739 1081.61 544.739C1082.13 544.739 1082.69 544.801 1083.27 544.926C1083.86 545.045 1084.41 545.267 1084.93 545.591C1085.44 545.915 1085.87 546.378 1086.2 546.98C1086.53 547.577 1086.69 548.352 1086.69 549.307V558H1084.2V556.21H1084.1C1083.93 556.54 1083.69 556.864 1083.36 557.182C1083.03 557.5 1082.6 557.764 1082.09 557.974C1081.57 558.185 1080.95 558.29 1080.23 558.29ZM1080.78 556.244C1081.49 556.244 1082.09 556.105 1082.59 555.827C1083.1 555.548 1083.48 555.185 1083.74 554.736C1084.01 554.281 1084.14 553.795 1084.14 553.278V551.591C1084.05 551.682 1083.87 551.767 1083.61 551.847C1083.36 551.92 1083.06 551.986 1082.74 552.043C1082.41 552.094 1082.08 552.142 1081.77 552.188C1081.46 552.227 1081.2 552.261 1080.99 552.29C1080.49 552.352 1080.04 552.457 1079.63 552.605C1079.23 552.753 1078.91 552.966 1078.66 553.244C1078.42 553.517 1078.3 553.881 1078.3 554.335C1078.3 554.966 1078.54 555.443 1079 555.767C1079.47 556.085 1080.06 556.244 1080.78 556.244ZM1095.6 558.264C1094.33 558.264 1093.24 557.977 1092.33 557.403C1091.42 556.824 1090.72 556.026 1090.23 555.009C1089.74 553.991 1089.5 552.827 1089.5 551.514C1089.5 550.185 1089.75 549.011 1090.25 547.994C1090.75 546.972 1091.45 546.173 1092.36 545.599C1093.27 545.026 1094.34 544.739 1095.57 544.739C1096.57 544.739 1097.45 544.923 1098.23 545.293C1099.01 545.656 1099.64 546.168 1100.12 546.827C1100.6 547.486 1100.89 548.256 1100.98 549.136H1098.5C1098.36 548.523 1098.05 547.994 1097.56 547.551C1097.08 547.108 1096.43 546.886 1095.62 546.886C1094.91 546.886 1094.28 547.074 1093.75 547.449C1093.22 547.818 1092.81 548.347 1092.51 549.034C1092.22 549.716 1092.07 550.523 1092.07 551.455C1092.07 552.409 1092.21 553.233 1092.5 553.926C1092.79 554.619 1093.2 555.156 1093.73 555.537C1094.27 555.918 1094.89 556.108 1095.62 556.108C1096.1 556.108 1096.54 556.02 1096.93 555.844C1097.33 555.662 1097.66 555.403 1097.93 555.068C1098.2 554.733 1098.39 554.33 1098.5 553.858H1100.98C1100.89 554.705 1100.61 555.46 1100.15 556.125C1099.69 556.79 1099.07 557.312 1098.3 557.693C1097.53 558.074 1096.63 558.264 1095.6 558.264ZM1109.81 544.909V546.955H1102.66V544.909H1109.81ZM1104.58 541.773H1107.13V554.156C1107.13 554.651 1107.2 555.023 1107.35 555.273C1107.5 555.517 1107.69 555.685 1107.92 555.776C1108.16 555.861 1108.42 555.903 1108.7 555.903C1108.9 555.903 1109.08 555.889 1109.23 555.861C1109.39 555.832 1109.51 555.81 1109.59 555.793L1110.05 557.898C1109.9 557.955 1109.69 558.011 1109.42 558.068C1109.15 558.131 1108.81 558.165 1108.4 558.17C1107.73 558.182 1107.1 558.062 1106.52 557.812C1105.94 557.562 1105.47 557.176 1105.12 556.653C1104.76 556.131 1104.58 555.474 1104.58 554.685V541.773ZM1133.68 546.222H1131.03C1130.92 545.653 1130.73 545.153 1130.45 544.722C1130.18 544.29 1129.83 543.923 1129.43 543.622C1129.03 543.321 1128.58 543.094 1128.08 542.94C1127.58 542.787 1127.06 542.71 1126.5 542.71C1125.49 542.71 1124.59 542.963 1123.8 543.469C1123.01 543.974 1122.38 544.716 1121.92 545.693C1121.47 546.67 1121.24 547.864 1121.24 549.273C1121.24 550.693 1121.47 551.892 1121.92 552.869C1122.38 553.847 1123.01 554.585 1123.81 555.085C1124.6 555.585 1125.5 555.835 1126.49 555.835C1127.04 555.835 1127.56 555.761 1128.06 555.614C1128.56 555.46 1129.01 555.236 1129.41 554.94C1129.82 554.645 1130.16 554.284 1130.44 553.858C1130.72 553.426 1130.92 552.932 1131.03 552.375L1133.68 552.384C1133.54 553.241 1133.27 554.031 1132.86 554.753C1132.45 555.469 1131.93 556.088 1131.3 556.611C1130.67 557.128 1129.95 557.528 1129.13 557.812C1128.32 558.097 1127.43 558.239 1126.47 558.239C1124.96 558.239 1123.62 557.881 1122.43 557.165C1121.25 556.443 1120.32 555.412 1119.64 554.071C1118.96 552.73 1118.62 551.131 1118.62 549.273C1118.62 547.409 1118.97 545.81 1119.65 544.474C1120.33 543.134 1121.26 542.105 1122.44 541.389C1123.62 540.668 1124.97 540.307 1126.47 540.307C1127.4 540.307 1128.26 540.44 1129.06 540.707C1129.87 540.969 1130.6 541.355 1131.24 541.866C1131.88 542.372 1132.41 542.991 1132.83 543.724C1133.25 544.452 1133.54 545.284 1133.68 546.222ZM1139.18 540.545V558H1136.63V540.545H1139.18ZM1142.61 558V544.909H1145.16V558H1142.61ZM1143.89 542.889C1143.45 542.889 1143.07 542.741 1142.75 542.446C1142.44 542.145 1142.28 541.787 1142.28 541.372C1142.28 540.952 1142.44 540.594 1142.75 540.298C1143.07 539.997 1143.45 539.847 1143.89 539.847C1144.34 539.847 1144.72 539.997 1145.03 540.298C1145.35 540.594 1145.51 540.952 1145.51 541.372C1145.51 541.787 1145.35 542.145 1145.03 542.446C1144.72 542.741 1144.34 542.889 1143.89 542.889ZM1154.23 558.264C1152.94 558.264 1151.83 557.989 1150.89 557.438C1149.97 556.881 1149.25 556.099 1148.75 555.094C1148.25 554.082 1148 552.898 1148 551.54C1148 550.199 1148.25 549.017 1148.75 547.994C1149.25 546.972 1149.96 546.173 1150.86 545.599C1151.77 545.026 1152.83 544.739 1154.05 544.739C1154.79 544.739 1155.5 544.861 1156.19 545.105C1156.89 545.349 1157.51 545.733 1158.06 546.256C1158.61 546.778 1159.05 547.457 1159.37 548.293C1159.68 549.122 1159.84 550.131 1159.84 551.318V552.222H1149.44V550.312H1157.35C1157.35 549.642 1157.21 549.048 1156.94 548.531C1156.66 548.009 1156.28 547.597 1155.79 547.295C1155.3 546.994 1154.72 546.844 1154.06 546.844C1153.35 546.844 1152.72 547.02 1152.19 547.372C1151.66 547.719 1151.25 548.173 1150.96 548.736C1150.68 549.293 1150.54 549.898 1150.54 550.551V552.043C1150.54 552.918 1150.69 553.662 1151 554.276C1151.31 554.889 1151.74 555.358 1152.3 555.682C1152.86 556 1153.51 556.159 1154.25 556.159C1154.73 556.159 1155.18 556.091 1155.57 555.955C1155.97 555.812 1156.31 555.602 1156.6 555.324C1156.89 555.045 1157.12 554.702 1157.27 554.293L1159.68 554.727C1159.49 555.437 1159.14 556.06 1158.64 556.594C1158.15 557.122 1157.52 557.534 1156.77 557.83C1156.03 558.119 1155.18 558.264 1154.23 558.264ZM1165.22 550.227V558H1162.67V544.909H1165.12V547.04H1165.28C1165.58 546.347 1166.05 545.79 1166.69 545.369C1167.34 544.949 1168.16 544.739 1169.14 544.739C1170.03 544.739 1170.81 544.926 1171.48 545.301C1172.15 545.67 1172.67 546.222 1173.04 546.955C1173.41 547.687 1173.6 548.594 1173.6 549.673V558H1171.05V549.98C1171.05 549.031 1170.8 548.29 1170.31 547.756C1169.81 547.216 1169.13 546.946 1168.27 546.946C1167.68 546.946 1167.15 547.074 1166.69 547.33C1166.24 547.585 1165.88 547.96 1165.61 548.455C1165.35 548.943 1165.22 549.534 1165.22 550.227ZM1183.12 544.909V546.955H1175.97V544.909H1183.12ZM1177.89 541.773H1180.44V554.156C1180.44 554.651 1180.51 555.023 1180.66 555.273C1180.81 555.517 1181 555.685 1181.23 555.776C1181.47 555.861 1181.73 555.903 1182.01 555.903C1182.21 555.903 1182.39 555.889 1182.55 555.861C1182.7 555.832 1182.82 555.81 1182.9 555.793L1183.36 557.898C1183.22 557.955 1183.01 558.011 1182.73 558.068C1182.46 558.131 1182.12 558.165 1181.71 558.17C1181.04 558.182 1180.41 558.062 1179.83 557.812C1179.26 557.562 1178.79 557.176 1178.43 556.653C1178.07 556.131 1177.89 555.474 1177.89 554.685V541.773Z" fill="white"/>
<path d="M406.749 354V330.727H415.658C417.339 330.727 418.737 330.992 419.851 331.523C420.972 332.045 421.809 332.761 422.362 333.67C422.923 334.58 423.203 335.61 423.203 336.761C423.203 337.708 423.021 338.519 422.658 339.193C422.294 339.86 421.805 340.402 421.192 340.818C420.578 341.235 419.893 341.534 419.135 341.716V341.943C419.961 341.989 420.752 342.242 421.51 342.705C422.275 343.159 422.9 343.803 423.385 344.636C423.87 345.47 424.112 346.477 424.112 347.659C424.112 348.864 423.821 349.947 423.237 350.909C422.654 351.864 421.775 352.617 420.601 353.17C419.427 353.723 417.949 354 416.169 354H406.749ZM410.964 350.477H415.499C417.029 350.477 418.131 350.186 418.805 349.602C419.487 349.011 419.828 348.254 419.828 347.33C419.828 346.64 419.658 346.019 419.317 345.466C418.976 344.905 418.491 344.466 417.862 344.148C417.233 343.822 416.483 343.659 415.612 343.659H410.964V350.477ZM410.964 340.625H415.135C415.862 340.625 416.518 340.492 417.101 340.227C417.684 339.955 418.143 339.572 418.476 339.08C418.817 338.58 418.987 337.989 418.987 337.307C418.987 336.405 418.669 335.663 418.033 335.08C417.404 334.496 416.468 334.205 415.226 334.205H410.964V340.625ZM435.325 354.341C433.575 354.341 432.064 353.977 430.791 353.25C429.526 352.515 428.553 351.477 427.871 350.136C427.189 348.788 426.848 347.201 426.848 345.375C426.848 343.58 427.189 342.004 427.871 340.648C428.56 339.284 429.522 338.223 430.757 337.466C431.992 336.701 433.443 336.318 435.109 336.318C436.185 336.318 437.2 336.492 438.155 336.841C439.117 337.182 439.965 337.712 440.7 338.432C441.443 339.152 442.026 340.068 442.45 341.182C442.875 342.288 443.087 343.606 443.087 345.136V346.398H428.78V343.625H439.143C439.136 342.837 438.965 342.136 438.632 341.523C438.299 340.902 437.833 340.413 437.234 340.057C436.643 339.701 435.954 339.523 435.166 339.523C434.325 339.523 433.587 339.727 432.95 340.136C432.314 340.538 431.818 341.068 431.462 341.727C431.113 342.379 430.935 343.095 430.928 343.875V346.295C430.928 347.311 431.113 348.182 431.484 348.909C431.856 349.629 432.375 350.182 433.041 350.568C433.708 350.947 434.488 351.136 435.382 351.136C435.981 351.136 436.522 351.053 437.007 350.886C437.492 350.712 437.912 350.458 438.268 350.125C438.625 349.792 438.893 349.379 439.075 348.886L442.916 349.318C442.674 350.333 442.212 351.22 441.53 351.977C440.856 352.727 439.992 353.311 438.939 353.727C437.886 354.136 436.681 354.341 435.325 354.341ZM450.68 343.773V354H446.567V336.545H450.499V339.511H450.703C451.105 338.534 451.745 337.758 452.624 337.182C453.51 336.606 454.605 336.318 455.908 336.318C457.112 336.318 458.161 336.576 459.055 337.091C459.957 337.606 460.654 338.352 461.146 339.33C461.646 340.307 461.893 341.492 461.885 342.886V354H457.771V343.523C457.771 342.356 457.468 341.443 456.862 340.784C456.264 340.125 455.434 339.795 454.374 339.795C453.654 339.795 453.014 339.955 452.453 340.273C451.9 340.583 451.464 341.034 451.146 341.625C450.836 342.216 450.68 342.932 450.68 343.773ZM473.794 354.341C472.044 354.341 470.533 353.977 469.26 353.25C467.995 352.515 467.021 351.477 466.339 350.136C465.658 348.788 465.317 347.201 465.317 345.375C465.317 343.58 465.658 342.004 466.339 340.648C467.029 339.284 467.991 338.223 469.226 337.466C470.461 336.701 471.911 336.318 473.578 336.318C474.654 336.318 475.669 336.492 476.624 336.841C477.586 337.182 478.434 337.712 479.169 338.432C479.911 339.152 480.495 340.068 480.919 341.182C481.343 342.288 481.555 343.606 481.555 345.136V346.398H467.249V343.625H477.612C477.605 342.837 477.434 342.136 477.101 341.523C476.768 340.902 476.302 340.413 475.703 340.057C475.112 339.701 474.423 339.523 473.635 339.523C472.794 339.523 472.055 339.727 471.419 340.136C470.783 340.538 470.286 341.068 469.93 341.727C469.582 342.379 469.404 343.095 469.396 343.875V346.295C469.396 347.311 469.582 348.182 469.953 348.909C470.324 349.629 470.843 350.182 471.51 350.568C472.177 350.947 472.957 351.136 473.851 351.136C474.449 351.136 474.991 351.053 475.476 350.886C475.961 350.712 476.381 350.458 476.737 350.125C477.093 349.792 477.362 349.379 477.544 348.886L481.385 349.318C481.143 350.333 480.68 351.22 479.999 351.977C479.324 352.727 478.461 353.311 477.408 353.727C476.355 354.136 475.15 354.341 473.794 354.341ZM493.876 336.545V339.727H483.558V336.545H493.876ZM486.138 354V334.898C486.138 333.723 486.38 332.746 486.865 331.966C487.357 331.186 488.017 330.602 488.842 330.216C489.668 329.83 490.585 329.636 491.592 329.636C492.304 329.636 492.937 329.693 493.49 329.807C494.043 329.92 494.452 330.023 494.717 330.114L493.899 333.295C493.725 333.242 493.505 333.189 493.24 333.136C492.975 333.076 492.679 333.045 492.354 333.045C491.589 333.045 491.047 333.231 490.729 333.602C490.418 333.966 490.263 334.489 490.263 335.17V354H486.138ZM497.098 354V336.545H501.212V354H497.098ZM499.166 334.068C498.515 334.068 497.954 333.852 497.484 333.42C497.015 332.981 496.78 332.455 496.78 331.841C496.78 331.22 497.015 330.693 497.484 330.261C497.954 329.822 498.515 329.602 499.166 329.602C499.825 329.602 500.386 329.822 500.848 330.261C501.318 330.693 501.553 331.22 501.553 331.841C501.553 332.455 501.318 332.981 500.848 333.42C500.386 333.852 499.825 334.068 499.166 334.068ZM514.158 336.545V339.727H504.124V336.545H514.158ZM506.601 332.364H510.714V348.75C510.714 349.303 510.798 349.727 510.964 350.023C511.139 350.311 511.366 350.508 511.646 350.614C511.927 350.72 512.237 350.773 512.578 350.773C512.836 350.773 513.071 350.754 513.283 350.716C513.502 350.678 513.669 350.644 513.783 350.614L514.476 353.83C514.256 353.905 513.942 353.989 513.533 354.08C513.131 354.17 512.639 354.223 512.055 354.239C511.025 354.269 510.097 354.114 509.271 353.773C508.446 353.424 507.79 352.886 507.305 352.159C506.828 351.432 506.593 350.523 506.601 349.432V332.364ZM533.149 354.341C531.445 354.341 529.967 353.966 528.717 353.216C527.467 352.466 526.498 351.417 525.808 350.068C525.126 348.72 524.786 347.144 524.786 345.341C524.786 343.538 525.126 341.958 525.808 340.602C526.498 339.246 527.467 338.193 528.717 337.443C529.967 336.693 531.445 336.318 533.149 336.318C534.854 336.318 536.331 336.693 537.581 337.443C538.831 338.193 539.797 339.246 540.479 340.602C541.168 341.958 541.513 343.538 541.513 345.341C541.513 347.144 541.168 348.72 540.479 350.068C539.797 351.417 538.831 352.466 537.581 353.216C536.331 353.966 534.854 354.341 533.149 354.341ZM533.172 351.045C534.096 351.045 534.869 350.792 535.49 350.284C536.111 349.769 536.573 349.08 536.876 348.216C537.187 347.352 537.342 346.39 537.342 345.33C537.342 344.261 537.187 343.295 536.876 342.432C536.573 341.561 536.111 340.867 535.49 340.352C534.869 339.837 534.096 339.58 533.172 339.58C532.225 339.58 531.437 339.837 530.808 340.352C530.187 340.867 529.721 341.561 529.411 342.432C529.107 343.295 528.956 344.261 528.956 345.33C528.956 346.39 529.107 347.352 529.411 348.216C529.721 349.08 530.187 349.769 530.808 350.284C531.437 350.792 532.225 351.045 533.172 351.045ZM553.845 336.545V339.727H543.527V336.545H553.845ZM546.107 354V334.898C546.107 333.723 546.349 332.746 546.834 331.966C547.326 331.186 547.985 330.602 548.811 330.216C549.637 329.83 550.554 329.636 551.561 329.636C552.273 329.636 552.906 329.693 553.459 329.807C554.012 329.92 554.421 330.023 554.686 330.114L553.868 333.295C553.694 333.242 553.474 333.189 553.209 333.136C552.944 333.076 552.648 333.045 552.322 333.045C551.557 333.045 551.016 333.231 550.697 333.602C550.387 333.966 550.232 334.489 550.232 335.17V354H546.107ZM565.004 354V336.545H569.118V354H565.004ZM567.072 334.068C566.421 334.068 565.86 333.852 565.391 333.42C564.921 332.981 564.686 332.455 564.686 331.841C564.686 331.22 564.921 330.693 565.391 330.261C565.86 329.822 566.421 329.602 567.072 329.602C567.732 329.602 568.292 329.822 568.754 330.261C569.224 330.693 569.459 331.22 569.459 331.841C569.459 332.455 569.224 332.981 568.754 333.42C568.292 333.852 567.732 334.068 567.072 334.068ZM573.348 354V336.545H577.28V339.511H577.484C577.848 338.511 578.45 337.731 579.291 337.17C580.132 336.602 581.136 336.318 582.303 336.318C583.484 336.318 584.481 336.606 585.291 337.182C586.109 337.75 586.685 338.527 587.018 339.511H587.2C587.587 338.542 588.238 337.769 589.155 337.193C590.079 336.61 591.174 336.318 592.439 336.318C594.045 336.318 595.356 336.826 596.371 337.841C597.386 338.856 597.893 340.337 597.893 342.284V354H593.768V342.92C593.768 341.837 593.481 341.045 592.905 340.545C592.329 340.038 591.625 339.784 590.791 339.784C589.799 339.784 589.022 340.095 588.462 340.716C587.909 341.33 587.632 342.129 587.632 343.114V354H583.598V342.75C583.598 341.848 583.325 341.129 582.78 340.591C582.242 340.053 581.537 339.784 580.666 339.784C580.075 339.784 579.537 339.936 579.053 340.239C578.568 340.534 578.181 340.955 577.893 341.5C577.606 342.038 577.462 342.667 577.462 343.386V354H573.348ZM602.067 360.545V336.545H606.112V339.432H606.351C606.563 339.008 606.862 338.557 607.249 338.08C607.635 337.595 608.158 337.182 608.817 336.841C609.476 336.492 610.317 336.318 611.339 336.318C612.688 336.318 613.904 336.663 614.987 337.352C616.078 338.034 616.942 339.045 617.578 340.386C618.222 341.72 618.544 343.356 618.544 345.295C618.544 347.212 618.23 348.841 617.601 350.182C616.972 351.523 616.116 352.545 615.033 353.25C613.949 353.955 612.722 354.307 611.351 354.307C610.351 354.307 609.521 354.14 608.862 353.807C608.203 353.473 607.673 353.072 607.271 352.602C606.877 352.125 606.571 351.674 606.351 351.25H606.18V360.545H602.067ZM606.101 345.273C606.101 346.402 606.26 347.39 606.578 348.239C606.904 349.087 607.37 349.75 607.976 350.227C608.589 350.697 609.332 350.932 610.203 350.932C611.112 350.932 611.874 350.689 612.487 350.205C613.101 349.712 613.563 349.042 613.874 348.193C614.192 347.337 614.351 346.364 614.351 345.273C614.351 344.189 614.196 343.227 613.885 342.386C613.574 341.545 613.112 340.886 612.499 340.409C611.885 339.932 611.12 339.693 610.203 339.693C609.324 339.693 608.578 339.924 607.964 340.386C607.351 340.848 606.885 341.496 606.567 342.33C606.256 343.163 606.101 344.144 606.101 345.273ZM622.067 354V336.545H626.055V339.455H626.237C626.555 338.447 627.101 337.67 627.874 337.125C628.654 336.572 629.544 336.295 630.544 336.295C630.771 336.295 631.025 336.307 631.305 336.33C631.593 336.345 631.832 336.371 632.021 336.409V340.193C631.847 340.133 631.571 340.08 631.192 340.034C630.821 339.981 630.461 339.955 630.112 339.955C629.362 339.955 628.688 340.117 628.089 340.443C627.499 340.761 627.033 341.205 626.692 341.773C626.351 342.341 626.18 342.996 626.18 343.739V354H622.067ZM641.649 354.341C639.945 354.341 638.467 353.966 637.217 353.216C635.967 352.466 634.998 351.417 634.308 350.068C633.626 348.72 633.286 347.144 633.286 345.341C633.286 343.538 633.626 341.958 634.308 340.602C634.998 339.246 635.967 338.193 637.217 337.443C638.467 336.693 639.945 336.318 641.649 336.318C643.354 336.318 644.831 336.693 646.081 337.443C647.331 338.193 648.297 339.246 648.979 340.602C649.668 341.958 650.013 343.538 650.013 345.341C650.013 347.144 649.668 348.72 648.979 350.068C648.297 351.417 647.331 352.466 646.081 353.216C644.831 353.966 643.354 354.341 641.649 354.341ZM641.672 351.045C642.596 351.045 643.369 350.792 643.99 350.284C644.611 349.769 645.073 349.08 645.376 348.216C645.687 347.352 645.842 346.39 645.842 345.33C645.842 344.261 645.687 343.295 645.376 342.432C645.073 341.561 644.611 340.867 643.99 340.352C643.369 339.837 642.596 339.58 641.672 339.58C640.725 339.58 639.937 339.837 639.308 340.352C638.687 340.867 638.221 341.561 637.911 342.432C637.607 343.295 637.456 344.261 637.456 345.33C637.456 346.39 637.607 347.352 637.911 348.216C638.221 349.08 638.687 349.769 639.308 350.284C639.937 350.792 640.725 351.045 641.672 351.045ZM668.501 336.545L662.286 354H657.74L651.524 336.545H655.911L659.922 349.511H660.104L664.126 336.545H668.501ZM671.348 354V336.545H675.462V354H671.348ZM673.416 334.068C672.765 334.068 672.204 333.852 671.734 333.42C671.265 332.981 671.03 332.455 671.03 331.841C671.03 331.22 671.265 330.693 671.734 330.261C672.204 329.822 672.765 329.602 673.416 329.602C674.075 329.602 674.636 329.822 675.098 330.261C675.568 330.693 675.803 331.22 675.803 331.841C675.803 332.455 675.568 332.981 675.098 333.42C674.636 333.852 674.075 334.068 673.416 334.068ZM683.805 343.773V354H679.692V336.545H683.624V339.511H683.828C684.23 338.534 684.87 337.758 685.749 337.182C686.635 336.606 687.73 336.318 689.033 336.318C690.237 336.318 691.286 336.576 692.18 337.091C693.082 337.606 693.779 338.352 694.271 339.33C694.771 340.307 695.018 341.492 695.01 342.886V354H690.896V343.523C690.896 342.356 690.593 341.443 689.987 340.784C689.389 340.125 688.559 339.795 687.499 339.795C686.779 339.795 686.139 339.955 685.578 340.273C685.025 340.583 684.589 341.034 684.271 341.625C683.961 342.216 683.805 342.932 683.805 343.773ZM706.783 360.909C705.305 360.909 704.036 360.708 702.976 360.307C701.915 359.913 701.063 359.383 700.419 358.716C699.775 358.049 699.328 357.311 699.078 356.5L702.783 355.602C702.949 355.943 703.192 356.28 703.51 356.614C703.828 356.955 704.256 357.235 704.794 357.455C705.339 357.682 706.025 357.795 706.851 357.795C708.018 357.795 708.983 357.511 709.749 356.943C710.514 356.383 710.896 355.458 710.896 354.17V350.864H710.692C710.48 351.288 710.169 351.723 709.76 352.17C709.358 352.617 708.824 352.992 708.158 353.295C707.499 353.598 706.669 353.75 705.669 353.75C704.328 353.75 703.112 353.436 702.021 352.807C700.938 352.17 700.074 351.223 699.43 349.966C698.794 348.701 698.476 347.117 698.476 345.216C698.476 343.299 698.794 341.682 699.43 340.364C700.074 339.038 700.942 338.034 702.033 337.352C703.124 336.663 704.339 336.318 705.68 336.318C706.703 336.318 707.544 336.492 708.203 336.841C708.87 337.182 709.4 337.595 709.794 338.08C710.188 338.557 710.487 339.008 710.692 339.432H710.919V336.545H714.976V354.284C714.976 355.777 714.62 357.011 713.908 357.989C713.196 358.966 712.222 359.697 710.987 360.182C709.752 360.667 708.351 360.909 706.783 360.909ZM706.817 350.523C707.688 350.523 708.43 350.311 709.044 349.886C709.658 349.462 710.124 348.852 710.442 348.057C710.76 347.261 710.919 346.307 710.919 345.193C710.919 344.095 710.76 343.133 710.442 342.307C710.131 341.481 709.669 340.841 709.055 340.386C708.449 339.924 707.703 339.693 706.817 339.693C705.9 339.693 705.135 339.932 704.521 340.409C703.908 340.886 703.446 341.542 703.135 342.375C702.824 343.201 702.669 344.14 702.669 345.193C702.669 346.261 702.824 347.197 703.135 348C703.453 348.795 703.919 349.417 704.533 349.864C705.154 350.303 705.915 350.523 706.817 350.523ZM729.686 360.545C729.125 360.545 728.607 360.5 728.129 360.409C727.66 360.326 727.285 360.227 727.004 360.114L727.959 356.909C728.557 357.083 729.091 357.167 729.561 357.159C730.031 357.152 730.444 357.004 730.8 356.716C731.163 356.436 731.47 355.966 731.72 355.307L732.072 354.364L725.743 336.545H730.107L734.129 349.727H734.311L738.345 336.545H742.72L735.732 356.114C735.406 357.038 734.974 357.83 734.436 358.489C733.898 359.155 733.239 359.663 732.459 360.011C731.686 360.367 730.762 360.545 729.686 360.545ZM752.587 354.341C750.882 354.341 749.405 353.966 748.155 353.216C746.905 352.466 745.935 351.417 745.246 350.068C744.564 348.72 744.223 347.144 744.223 345.341C744.223 343.538 744.564 341.958 745.246 340.602C745.935 339.246 746.905 338.193 748.155 337.443C749.405 336.693 750.882 336.318 752.587 336.318C754.291 336.318 755.768 336.693 757.018 337.443C758.268 338.193 759.234 339.246 759.916 340.602C760.606 341.958 760.95 343.538 760.95 345.341C760.95 347.144 760.606 348.72 759.916 350.068C759.234 351.417 758.268 352.466 757.018 353.216C755.768 353.966 754.291 354.341 752.587 354.341ZM752.609 351.045C753.534 351.045 754.306 350.792 754.928 350.284C755.549 349.769 756.011 349.08 756.314 348.216C756.625 347.352 756.78 346.39 756.78 345.33C756.78 344.261 756.625 343.295 756.314 342.432C756.011 341.561 755.549 340.867 754.928 340.352C754.306 339.837 753.534 339.58 752.609 339.58C751.662 339.58 750.875 339.837 750.246 340.352C749.625 340.867 749.159 341.561 748.848 342.432C748.545 343.295 748.393 344.261 748.393 345.33C748.393 346.39 748.545 347.352 748.848 348.216C749.159 349.08 749.625 349.769 750.246 350.284C750.875 350.792 751.662 351.045 752.609 351.045ZM775.567 346.659V336.545H779.68V354H775.692V350.898H775.51C775.116 351.875 774.468 352.674 773.567 353.295C772.673 353.917 771.571 354.227 770.26 354.227C769.116 354.227 768.105 353.973 767.226 353.466C766.355 352.951 765.673 352.205 765.18 351.227C764.688 350.242 764.442 349.053 764.442 347.659V336.545H768.555V347.023C768.555 348.129 768.858 349.008 769.464 349.659C770.071 350.311 770.866 350.636 771.851 350.636C772.457 350.636 773.044 350.489 773.612 350.193C774.18 349.898 774.646 349.458 775.01 348.875C775.381 348.284 775.567 347.545 775.567 346.659ZM783.911 354V336.545H787.899V339.455H788.081C788.399 338.447 788.945 337.67 789.717 337.125C790.498 336.572 791.388 336.295 792.388 336.295C792.615 336.295 792.869 336.307 793.149 336.33C793.437 336.345 793.676 336.371 793.865 336.409V340.193C793.691 340.133 793.414 340.08 793.036 340.034C792.664 339.981 792.304 339.955 791.956 339.955C791.206 339.955 790.532 340.117 789.933 340.443C789.342 340.761 788.876 341.205 788.536 341.773C788.195 342.341 788.024 342.996 788.024 343.739V354H783.911ZM804.717 354V330.727H808.831V339.432H809.001C809.214 339.008 809.513 338.557 809.899 338.08C810.286 337.595 810.808 337.182 811.467 336.841C812.126 336.492 812.967 336.318 813.99 336.318C815.339 336.318 816.554 336.663 817.638 337.352C818.729 338.034 819.592 339.045 820.229 340.386C820.873 341.72 821.195 343.356 821.195 345.295C821.195 347.212 820.88 348.841 820.251 350.182C819.623 351.523 818.767 352.545 817.683 353.25C816.6 353.955 815.373 354.307 814.001 354.307C813.001 354.307 812.172 354.14 811.513 353.807C810.854 353.473 810.323 353.072 809.922 352.602C809.528 352.125 809.221 351.674 809.001 351.25H808.763V354H804.717ZM808.751 345.273C808.751 346.402 808.911 347.39 809.229 348.239C809.554 349.087 810.02 349.75 810.626 350.227C811.24 350.697 811.982 350.932 812.854 350.932C813.763 350.932 814.524 350.689 815.138 350.205C815.751 349.712 816.214 349.042 816.524 348.193C816.842 347.337 817.001 346.364 817.001 345.273C817.001 344.189 816.846 343.227 816.536 342.386C816.225 341.545 815.763 340.886 815.149 340.409C814.536 339.932 813.77 339.693 812.854 339.693C811.975 339.693 811.229 339.924 810.615 340.386C810.001 340.848 809.536 341.496 809.217 342.33C808.907 343.163 808.751 344.144 808.751 345.273ZM835.817 346.659V336.545H839.93V354H835.942V350.898H835.76C835.366 351.875 834.718 352.674 833.817 353.295C832.923 353.917 831.821 354.227 830.51 354.227C829.366 354.227 828.355 353.973 827.476 353.466C826.605 352.951 825.923 352.205 825.43 351.227C824.938 350.242 824.692 349.053 824.692 347.659V336.545H828.805V347.023C828.805 348.129 829.108 349.008 829.714 349.659C830.321 350.311 831.116 350.636 832.101 350.636C832.707 350.636 833.294 350.489 833.862 350.193C834.43 349.898 834.896 349.458 835.26 348.875C835.631 348.284 835.817 347.545 835.817 346.659ZM857.956 341.159L854.206 341.568C854.1 341.189 853.914 340.833 853.649 340.5C853.392 340.167 853.043 339.898 852.604 339.693C852.164 339.489 851.626 339.386 850.99 339.386C850.134 339.386 849.414 339.572 848.831 339.943C848.255 340.314 847.971 340.795 847.979 341.386C847.971 341.894 848.157 342.307 848.536 342.625C848.922 342.943 849.558 343.205 850.445 343.409L853.422 344.045C855.073 344.402 856.301 344.966 857.104 345.739C857.914 346.511 858.323 347.523 858.331 348.773C858.323 349.871 858.001 350.841 857.365 351.682C856.736 352.515 855.861 353.167 854.74 353.636C853.619 354.106 852.331 354.341 850.876 354.341C848.74 354.341 847.02 353.894 845.717 353C844.414 352.098 843.638 350.845 843.388 349.239L847.399 348.852C847.581 349.64 847.967 350.235 848.558 350.636C849.149 351.038 849.918 351.239 850.865 351.239C851.842 351.239 852.626 351.038 853.217 350.636C853.816 350.235 854.115 349.739 854.115 349.148C854.115 348.648 853.922 348.235 853.536 347.909C853.157 347.583 852.566 347.333 851.763 347.159L848.786 346.534C847.111 346.186 845.873 345.598 845.07 344.773C844.267 343.939 843.869 342.886 843.876 341.614C843.869 340.538 844.161 339.606 844.751 338.818C845.35 338.023 846.179 337.409 847.24 336.977C848.308 336.538 849.539 336.318 850.933 336.318C852.979 336.318 854.589 336.754 855.763 337.625C856.945 338.496 857.676 339.674 857.956 341.159ZM861.723 354V336.545H865.837V354H861.723ZM863.791 334.068C863.14 334.068 862.579 333.852 862.109 333.42C861.64 332.981 861.405 332.455 861.405 331.841C861.405 331.22 861.64 330.693 862.109 330.261C862.579 329.822 863.14 329.602 863.791 329.602C864.45 329.602 865.011 329.822 865.473 330.261C865.943 330.693 866.178 331.22 866.178 331.841C866.178 332.455 865.943 332.981 865.473 333.42C865.011 333.852 864.45 334.068 863.791 334.068ZM874.18 343.773V354H870.067V336.545H873.999V339.511H874.203C874.605 338.534 875.245 337.758 876.124 337.182C877.01 336.606 878.105 336.318 879.408 336.318C880.612 336.318 881.661 336.576 882.555 337.091C883.457 337.606 884.154 338.352 884.646 339.33C885.146 340.307 885.393 341.492 885.385 342.886V354H881.271V343.523C881.271 342.356 880.968 341.443 880.362 340.784C879.764 340.125 878.934 339.795 877.874 339.795C877.154 339.795 876.514 339.955 875.953 340.273C875.4 340.583 874.964 341.034 874.646 341.625C874.336 342.216 874.18 342.932 874.18 343.773ZM897.294 354.341C895.544 354.341 894.033 353.977 892.76 353.25C891.495 352.515 890.521 351.477 889.839 350.136C889.158 348.788 888.817 347.201 888.817 345.375C888.817 343.58 889.158 342.004 889.839 340.648C890.529 339.284 891.491 338.223 892.726 337.466C893.961 336.701 895.411 336.318 897.078 336.318C898.154 336.318 899.169 336.492 900.124 336.841C901.086 337.182 901.934 337.712 902.669 338.432C903.411 339.152 903.995 340.068 904.419 341.182C904.843 342.288 905.055 343.606 905.055 345.136V346.398H890.749V343.625H901.112C901.105 342.837 900.934 342.136 900.601 341.523C900.268 340.902 899.802 340.413 899.203 340.057C898.612 339.701 897.923 339.523 897.135 339.523C896.294 339.523 895.555 339.727 894.919 340.136C894.283 340.538 893.786 341.068 893.43 341.727C893.082 342.379 892.904 343.095 892.896 343.875V346.295C892.896 347.311 893.082 348.182 893.453 348.909C893.824 349.629 894.343 350.182 895.01 350.568C895.677 350.947 896.457 351.136 897.351 351.136C897.949 351.136 898.491 351.053 898.976 350.886C899.461 350.712 899.881 350.458 900.237 350.125C900.593 349.792 900.862 349.379 901.044 348.886L904.885 349.318C904.643 350.333 904.18 351.22 903.499 351.977C902.824 352.727 901.961 353.311 900.908 353.727C899.855 354.136 898.65 354.341 897.294 354.341ZM922.331 341.159L918.581 341.568C918.475 341.189 918.289 340.833 918.024 340.5C917.767 340.167 917.418 339.898 916.979 339.693C916.539 339.489 916.001 339.386 915.365 339.386C914.509 339.386 913.789 339.572 913.206 339.943C912.63 340.314 912.346 340.795 912.354 341.386C912.346 341.894 912.532 342.307 912.911 342.625C913.297 342.943 913.933 343.205 914.82 343.409L917.797 344.045C919.448 344.402 920.676 344.966 921.479 345.739C922.289 346.511 922.698 347.523 922.706 348.773C922.698 349.871 922.376 350.841 921.74 351.682C921.111 352.515 920.236 353.167 919.115 353.636C917.994 354.106 916.706 354.341 915.251 354.341C913.115 354.341 911.395 353.894 910.092 353C908.789 352.098 908.013 350.845 907.763 349.239L911.774 348.852C911.956 349.64 912.342 350.235 912.933 350.636C913.524 351.038 914.293 351.239 915.24 351.239C916.217 351.239 917.001 351.038 917.592 350.636C918.191 350.235 918.49 349.739 918.49 349.148C918.49 348.648 918.297 348.235 917.911 347.909C917.532 347.583 916.941 347.333 916.138 347.159L913.161 346.534C911.486 346.186 910.248 345.598 909.445 344.773C908.642 343.939 908.244 342.886 908.251 341.614C908.244 340.538 908.536 339.606 909.126 338.818C909.725 338.023 910.554 337.409 911.615 336.977C912.683 336.538 913.914 336.318 915.308 336.318C917.354 336.318 918.964 336.754 920.138 337.625C921.32 338.496 922.051 339.674 922.331 341.159ZM939.893 341.159L936.143 341.568C936.037 341.189 935.852 340.833 935.587 340.5C935.329 340.167 934.981 339.898 934.541 339.693C934.102 339.489 933.564 339.386 932.928 339.386C932.071 339.386 931.352 339.572 930.768 339.943C930.193 340.314 929.909 340.795 929.916 341.386C929.909 341.894 930.094 342.307 930.473 342.625C930.859 342.943 931.496 343.205 932.382 343.409L935.359 344.045C937.011 344.402 938.238 344.966 939.041 345.739C939.852 346.511 940.261 347.523 940.268 348.773C940.261 349.871 939.939 350.841 939.303 351.682C938.674 352.515 937.799 353.167 936.678 353.636C935.556 354.106 934.268 354.341 932.814 354.341C930.678 354.341 928.958 353.894 927.655 353C926.352 352.098 925.575 350.845 925.325 349.239L929.337 348.852C929.518 349.64 929.905 350.235 930.496 350.636C931.087 351.038 931.856 351.239 932.803 351.239C933.78 351.239 934.564 351.038 935.155 350.636C935.753 350.235 936.053 349.739 936.053 349.148C936.053 348.648 935.859 348.235 935.473 347.909C935.094 347.583 934.503 347.333 933.7 347.159L930.723 346.534C929.049 346.186 927.81 345.598 927.007 344.773C926.204 343.939 925.806 342.886 925.814 341.614C925.806 340.538 926.098 339.606 926.689 338.818C927.287 338.023 928.117 337.409 929.178 336.977C930.246 336.538 931.477 336.318 932.871 336.318C934.916 336.318 936.526 336.754 937.7 337.625C938.882 338.496 939.613 339.674 939.893 341.159Z" fill="white"/>
</g>
</g>
<defs>
<filter id="filter0_f_1_235" x="-672" y="-705" width="1410" height="1410" filterUnits="userSpaceOnUse" color-interpolation-filters="sRGB">
<feFlood flood-opacity="0" result="BackgroundImageFix"/>
<feBlend mode="normal" in="SourceGraphic" in2="BackgroundImageFix" result="shape"/>
<feGaussianBlur stdDeviation="190" result="effect1_foregroundBlur_1_235"/>
</filter>
<filter id="filter1_b_1_235" x="-67" y="198" width="1480" height="534" filterUnits="userSpaceOnUse" color-interpolation-filters="sRGB">
<feFlood flood-opacity="0" result="BackgroundImageFix"/>
<feGaussianBlur in="BackgroundImageFix" stdDeviation="50"/>
<feComposite in2="SourceAlpha" operator="in" result="effect1_backgroundBlur_1_235"/>
<feBlend mode="normal" in="SourceGraphic" in2="effect1_backgroundBlur_1_235" result="shape"/>
</filter>
<linearGradient id="paint0_linear_1_235" x1="612" y1="1216" x2="460" y2="35.5001" gradientUnits="userSpaceOnUse">
<stop stop-color="white"/>
<stop offset="1" stop-color="white" stop-opacity="0"/>
</linearGradient>
<linearGradient id="paint1_linear_1_235" x1="1313" y1="632" x2="263.908" y2="-54.7431" gradientUnits="userSpaceOnUse">
<stop stop-color="#00796D"/>
<stop offset="1" stop-color="#38C682"/>
</linearGradient>
<linearGradient id="paint2_linear_1_235" x1="1313" y1="632" x2="263.908" y2="-54.7431" gradientUnits="userSpaceOnUse">
<stop offset="0.5" stop-color="#8186FF" stop-opacity="0.8"/>
<stop offset="1" stop-color="#9B9FFF" stop-opacity="0.8"/>
</linearGradient>
<linearGradient id="paint3_linear_1_235" x1="125" y1="530" x2="125" y2="166" gradientUnits="userSpaceOnUse">
<stop stop-color="white"/>
<stop offset="1" stop-color="white" stop-opacity="0"/>
</linearGradient>
<linearGradient id="paint4_linear_1_235" x1="184" y1="468.505" x2="292" y2="468.505" gradientUnits="userSpaceOnUse">
<stop stop-color="white"/>
<stop offset="1" stop-color="white" stop-opacity="0"/>
</linearGradient>
<linearGradient id="paint5_linear_1_235" x1="282" y1="513" x2="181.889" y2="495.9" gradientUnits="userSpaceOnUse">
<stop stop-color="#666CFF"/>
<stop offset="1" stop-color="#9B9FFF"/>
</linearGradient>
<linearGradient id="paint6_linear_1_235" x1="259.645" y1="490.667" x2="210.371" y2="482.254" gradientUnits="userSpaceOnUse">
<stop stop-color="#666CFF"/>
<stop offset="1" stop-color="#9B9FFF"/>
</linearGradient>
<linearGradient id="paint7_linear_1_235" x1="474" y1="468.505" x2="582" y2="468.505" gradientUnits="userSpaceOnUse">
<stop stop-color="white"/>
<stop offset="1" stop-color="white" stop-opacity="0"/>
</linearGradient>
<linearGradient id="paint8_linear_1_235" x1="572" y1="513" x2="471.889" y2="495.9" gradientUnits="userSpaceOnUse">
<stop stop-color="#666CFF"/>
<stop offset="1" stop-color="#9B9FFF"/>
</linearGradient>
<linearGradient id="paint9_linear_1_235" x1="549.147" y1="490.667" x2="500.969" y2="482.632" gradientUnits="userSpaceOnUse">
<stop stop-color="#666CFF"/>
<stop offset="1" stop-color="#9B9FFF"/>
</linearGradient>
<linearGradient id="paint10_linear_1_235" x1="549.147" y1="490.667" x2="500.969" y2="482.632" gradientUnits="userSpaceOnUse">
<stop stop-color="#666CFF"/>
<stop offset="1" stop-color="#9B9FFF"/>
</linearGradient>
<linearGradient id="paint11_linear_1_235" x1="549.147" y1="490.667" x2="500.969" y2="482.632" gradientUnits="userSpaceOnUse">
<stop stop-color="#666CFF"/>
<stop offset="1" stop-color="#9B9FFF"/>
</linearGradient>
<linearGradient id="paint12_linear_1_235" x1="549.147" y1="490.667" x2="500.969" y2="482.632" gradientUnits="userSpaceOnUse">
<stop stop-color="#666CFF"/>
<stop offset="1" stop-color="#9B9FFF"/>
</linearGradient>
<linearGradient id="paint13_linear_1_235" x1="549.147" y1="490.667" x2="500.969" y2="482.632" gradientUnits="userSpaceOnUse">
<stop stop-color="#666CFF"/>
<stop offset="1" stop-color="#9B9FFF"/>
</linearGradient>
<linearGradient id="paint14_linear_1_235" x1="764" y1="468.505" x2="872" y2="468.505" gradientUnits="userSpaceOnUse">
<stop stop-color="white"/>
<stop offset="1" stop-color="white" stop-opacity="0"/>
</linearGradient>
<linearGradient id="paint15_linear_1_235" x1="862" y1="513" x2="761.889" y2="495.9" gradientUnits="userSpaceOnUse">
<stop stop-color="#666CFF"/>
<stop offset="1" stop-color="#9B9FFF"/>
</linearGradient>
<linearGradient id="paint16_linear_1_235" x1="839.733" y1="490.499" x2="790.282" y2="481.989" gradientUnits="userSpaceOnUse">
<stop stop-color="#666CFF"/>
<stop offset="1" stop-color="#9B9FFF"/>
</linearGradient>
<linearGradient id="paint17_linear_1_235" x1="839.733" y1="490.499" x2="790.282" y2="481.989" gradientUnits="userSpaceOnUse">
<stop stop-color="#666CFF"/>
<stop offset="1" stop-color="#9B9FFF"/>
</linearGradient>
<linearGradient id="paint18_linear_1_235" x1="1054" y1="468.505" x2="1162" y2="468.505" gradientUnits="userSpaceOnUse">
<stop stop-color="white"/>
<stop offset="1" stop-color="white" stop-opacity="0"/>
</linearGradient>
<linearGradient id="paint19_linear_1_235" x1="1152" y1="513" x2="1051.89" y2="495.9" gradientUnits="userSpaceOnUse">
<stop stop-color="#666CFF"/>
<stop offset="1" stop-color="#9B9FFF"/>
</linearGradient>
<linearGradient id="paint20_linear_1_235" x1="1129.67" y1="490.667" x2="1080.28" y2="482.213" gradientUnits="userSpaceOnUse">
<stop stop-color="#666CFF"/>
<stop offset="1" stop-color="#9B9FFF"/>
</linearGradient>
<linearGradient id="paint21_linear_1_235" x1="1129.67" y1="490.667" x2="1080.28" y2="482.213" gradientUnits="userSpaceOnUse">
<stop stop-color="#666CFF"/>
<stop offset="1" stop-color="#9B9FFF"/>
</linearGradient>
<linearGradient id="paint22_linear_1_235" x1="1129.67" y1="490.667" x2="1080.28" y2="482.213" gradientUnits="userSpaceOnUse">
<stop stop-color="#666CFF"/>
<stop offset="1" stop-color="#9B9FFF"/>
</linearGradient>
<linearGradient id="paint23_linear_1_235" x1="1129.67" y1="490.667" x2="1080.28" y2="482.213" gradientUnits="userSpaceOnUse">
<stop stop-color="#666CFF"/>
<stop offset="1" stop-color="#9B9FFF"/>
</linearGradient>
<clipPath id="clip0_1_235">
<rect width="1440" height="1120" fill="white"/>
</clipPath>
</defs>
</svg>
