<svg width="212" height="36" viewBox="0 0 212 36" fill="none" xmlns="http://www.w3.org/2000/svg">
<path d="M30.24 0H5.76C2.57884 0 0 2.57884 0 5.76V30.24C0 33.4212 2.57884 36 5.76 36H30.24C33.4212 36 36 33.4212 36 30.24V5.76C36 2.57884 33.4212 0 30.24 0Z" fill="url(#paint0_linear_1_628)"/>
<path d="M11.73 25.3C10.6767 25.3 9.72667 25.1167 8.88 24.75C8.04 24.3833 7.34667 23.86 6.8 23.18C6.26 22.4933 5.91667 21.68 5.77 20.74L8.27 20.36C8.48333 21.2133 8.92 21.8733 9.58 22.34C10.2467 22.8067 11.0133 23.04 11.88 23.04C12.3933 23.04 12.8767 22.96 13.33 22.8C13.7833 22.64 14.15 22.4067 14.43 22.1C14.7167 21.7933 14.86 21.4167 14.86 20.97C14.86 20.77 14.8267 20.5867 14.76 20.42C14.6933 20.2467 14.5933 20.0933 14.46 19.96C14.3333 19.8267 14.1667 19.7067 13.96 19.6C13.76 19.4867 13.5267 19.39 13.26 19.31L9.54 18.21C9.22 18.1167 8.87333 17.9933 8.5 17.84C8.13333 17.68 7.78333 17.4633 7.45 17.19C7.12333 16.91 6.85333 16.5567 6.64 16.13C6.43333 15.6967 6.33 15.1633 6.33 14.53C6.33 13.6033 6.56333 12.8267 7.03 12.2C7.50333 11.5667 8.13667 11.0933 8.93 10.78C9.73 10.4667 10.6167 10.3133 11.59 10.32C12.5767 10.3267 13.4567 10.4967 14.23 10.83C15.0033 11.1567 15.65 11.6333 16.17 12.26C16.69 12.8867 17.0567 13.6433 17.27 14.53L14.68 14.98C14.5733 14.4733 14.3667 14.0433 14.06 13.69C13.76 13.33 13.39 13.0567 12.95 12.87C12.5167 12.6833 12.0533 12.5833 11.56 12.57C11.08 12.5633 10.6333 12.6367 10.22 12.79C9.81333 12.9367 9.48333 13.15 9.23 13.43C8.98333 13.71 8.86 14.0367 8.86 14.41C8.86 14.7633 8.96667 15.0533 9.18 15.28C9.39333 15.5 9.65667 15.6767 9.97 15.81C10.29 15.9367 10.6133 16.0433 10.94 16.13L13.52 16.85C13.8733 16.9433 14.27 17.07 14.71 17.23C15.15 17.39 15.5733 17.6133 15.98 17.9C16.3867 18.1867 16.72 18.5633 16.98 19.03C17.2467 19.4967 17.38 20.09 17.38 20.81C17.38 21.5567 17.2233 22.2133 16.91 22.78C16.6033 23.34 16.1867 23.8067 15.66 24.18C15.1333 24.5533 14.53 24.8333 13.85 25.02C13.1767 25.2067 12.47 25.3 11.73 25.3ZM19.5445 25V10.6H28.8445V12.86H21.9545V16.41H27.6445V18.67H21.9545V22.74H28.8445V25H19.5445Z" fill="white"/>
<g clip-path="url(#clip0_1_628)">
<g clip-path="url(#clip1_1_628)">
<g clip-path="url(#clip2_1_628)">
<g clip-path="url(#clip3_1_628)">
<g filter="url(#filter0_d_1_628)">
<mask id="path-3-outside-1_1_628" maskUnits="userSpaceOnUse" x="44.283" y="8.85742" width="168" height="24" fill="black">
<rect fill="white" x="44.283" y="8.85742" width="168" height="24"/>
<path d="M51.6205 26.6644C50.3025 26.6644 49.1018 26.5127 48.0184 26.2094C46.9351 25.9091 46.0233 25.5114 45.283 25.0162L46.583 23.159C47.233 23.6233 47.9643 24.0025 48.7768 24.2965C49.5893 24.5906 50.5372 24.7376 51.6205 24.7376C52.9205 24.7376 53.9497 24.5055 54.7081 24.0412C55.4664 23.5769 55.8456 22.9501 55.8456 22.1608C55.8456 21.712 55.7372 21.3128 55.5206 20.963C55.3039 20.6163 54.8832 20.2759 54.2585 19.9416C53.6374 19.6104 52.7219 19.2514 51.5122 18.8645C50.2122 18.4311 49.174 17.9932 48.3976 17.5505C47.6212 17.111 47.0651 16.6081 46.7293 16.0416C46.3971 15.4783 46.2309 14.8097 46.2309 14.0359C46.2309 13.2621 46.4801 12.5611 46.9784 11.9328C47.4732 11.3075 48.2044 10.8046 49.1722 10.4238C50.1364 10.0462 51.3046 9.85742 52.6768 9.85742C53.7962 9.85742 54.8037 9.95337 55.6993 10.1453C56.5913 10.3403 57.4615 10.6157 58.3102 10.9717L57.3622 12.852C56.7483 12.5425 56.0315 12.2825 55.2118 12.072C54.3885 11.8647 53.5254 11.761 52.6226 11.761C51.431 11.761 50.4921 11.9622 49.806 12.3645C49.1198 12.7669 48.7768 13.2854 48.7768 13.9199C48.7768 14.3222 48.8761 14.6782 49.0747 14.9877C49.2733 15.2972 49.6669 15.599 50.2555 15.8931C50.8405 16.1871 51.7198 16.5198 52.8935 16.8913C54.3018 17.3401 55.4176 17.8121 56.241 18.3073C57.0607 18.8025 57.6421 19.3396 57.9851 19.9184C58.3282 20.5003 58.4997 21.1626 58.4997 21.9055C58.4997 22.9114 58.2072 23.7703 57.6222 24.4822C57.0336 25.1941 56.2211 25.7358 55.1847 26.1072C54.1447 26.4786 52.9567 26.6644 51.6205 26.6644ZM67.9519 26.6644C66.6157 26.6644 65.415 26.3966 64.3498 25.8612C63.2845 25.3288 62.4485 24.5859 61.8418 23.6326C61.2388 22.6824 60.9372 21.5882 60.9372 20.3501C60.9372 19.0502 61.2442 17.9282 61.8581 16.9841C62.472 16.0401 63.3116 15.3127 64.3768 14.802C65.4421 14.2913 66.6338 14.0359 67.9519 14.0359C69.2699 14.0359 70.4562 14.2913 71.5106 14.802C72.5687 15.3127 73.4083 16.0354 74.0294 16.9702C74.6541 17.908 74.9665 19.0192 74.9665 20.3037C74.9665 21.5882 74.6595 22.7056 74.0456 23.6558C73.4317 24.6091 72.5958 25.3489 71.5377 25.8751C70.4833 26.4013 69.288 26.6644 67.9519 26.6644ZM67.9519 24.8072C69.3782 24.8072 70.4887 24.3925 71.2831 23.563C72.0776 22.7365 72.4748 21.6656 72.4748 20.3501C72.4748 19.5454 72.2762 18.8056 71.879 18.1309C71.4817 17.4592 70.9437 16.9176 70.2648 16.5059C69.5895 16.0973 68.8185 15.8931 67.9519 15.8931C66.5255 15.8931 65.415 16.2954 64.6206 17.1002C63.8261 17.9049 63.4289 18.9728 63.4289 20.3037C63.4289 21.1085 63.6275 21.8544 64.0248 22.5416C64.422 23.2318 64.9582 23.7812 65.6335 24.1897C66.3124 24.6014 67.0852 24.8072 67.9519 24.8072ZM82.8207 26.6644C82.0082 26.6644 81.2408 26.5173 80.5186 26.2233C79.7963 25.9292 79.2095 25.4526 78.7581 24.7933C78.3068 24.1371 78.0811 23.2596 78.0811 22.1608V14.3145H80.5186V21.8823C80.5186 22.8263 80.7515 23.549 81.2173 24.0505C81.6904 24.555 82.3783 24.8072 83.2811 24.8072C84.0214 24.8072 84.7382 24.6788 85.4315 24.4219C86.1284 24.1681 86.7478 23.8245 87.2894 23.3912V14.3145H89.7269V23.2519C89.7269 23.9174 89.893 24.3538 90.2253 24.5612C90.5611 24.7716 90.9276 24.8769 91.3249 24.8769L90.8103 26.5019C89.1311 26.5019 88.0929 25.9292 87.6957 24.784C87.0637 25.3412 86.3325 25.7931 85.5019 26.1397C84.6714 26.4895 83.7776 26.6644 82.8207 26.6644ZM97.007 26.3858H94.5694V14.3145H96.9257V16.9377C97.1604 16.427 97.4764 15.9503 97.8736 15.5077C98.2708 15.0682 98.7674 14.7122 99.3632 14.4399C99.959 14.1706 100.654 14.0359 101.449 14.0359C101.719 14.0359 101.99 14.0468 102.261 14.0684C102.532 14.0932 102.758 14.1288 102.938 14.1752L102.207 16.3341C101.864 16.2103 101.458 16.1484 100.988 16.1484C100.32 16.1484 99.6846 16.3109 99.0815 16.6359C98.4749 16.9609 97.9784 17.4639 97.592 18.1448C97.202 18.8258 97.007 19.6924 97.007 20.7448V26.3858ZM110.251 26.6644C108.915 26.6644 107.746 26.3966 106.746 25.8612C105.742 25.3288 104.969 24.5859 104.428 23.6326C103.886 22.6824 103.615 21.5882 103.615 20.3501C103.615 19.1894 103.892 18.1293 104.444 17.1698C104.993 16.2103 105.782 15.4474 106.811 14.8809C107.84 14.3176 109.05 14.0359 110.44 14.0359C111.235 14.0359 111.935 14.0978 112.542 14.2217C113.145 14.3455 113.726 14.5234 114.286 14.7556L113.555 16.5198C113.049 16.3032 112.567 16.1438 112.109 16.0416C111.646 15.9426 111.135 15.8931 110.576 15.8931C109.312 15.8931 108.252 16.2831 107.396 17.063C106.537 17.8461 106.107 18.9264 106.107 20.3037C106.107 21.1394 106.288 21.8977 106.649 22.5787C107.01 23.2596 107.512 23.8013 108.154 24.2037C108.794 24.606 109.547 24.8072 110.413 24.8072C111.099 24.8072 111.686 24.7407 112.174 24.6076C112.661 24.4776 113.185 24.2888 113.745 24.0412L114.503 25.8054C113.943 26.0685 113.317 26.2775 112.623 26.4322C111.926 26.587 111.135 26.6644 110.251 26.6644ZM122.709 26.6644C120.687 26.6644 119.084 26.1103 117.899 25.0022C116.718 23.8972 116.128 22.3466 116.128 20.3501C116.128 19.143 116.393 18.0628 116.924 17.1095C117.459 16.1592 118.204 15.4087 119.161 14.8577C120.118 14.3099 121.229 14.0359 122.492 14.0359C123.847 14.0359 124.97 14.2867 125.862 14.7881C126.757 15.2926 127.431 15.9704 127.882 16.8216C128.333 17.6728 128.559 18.6091 128.559 19.6305C128.559 20.1722 128.532 20.6984 128.478 21.2091H118.62C118.782 22.3388 119.242 23.2209 120.001 23.8555C120.759 24.49 121.761 24.8072 123.007 24.8072C123.82 24.8072 124.551 24.733 125.201 24.5844C125.851 24.4389 126.474 24.2501 127.07 24.018L127.638 25.8054C126.988 26.0531 126.257 26.2589 125.445 26.4229C124.632 26.5839 123.72 26.6644 122.709 26.6644ZM118.592 19.5144H126.311C126.311 18.3383 125.968 17.4329 125.282 16.7984C124.596 16.1639 123.648 15.8466 122.438 15.8466C121.391 15.8466 120.524 16.1592 119.838 16.7845C119.152 17.4128 118.737 18.3228 118.592 19.5144ZM143.455 26.3858H132.08V10.136H143.455V12.0395H134.653V16.9841H142.236V18.8412H134.653V24.4822H143.455V26.3858ZM157.939 25.2483L156.098 26.5947L151.358 21.5573L146.673 26.5483L144.939 25.2483L149.95 20.2573L145.129 15.4752L147.025 14.0592L151.385 18.8877L155.664 14.152L157.479 15.4752L152.793 20.1644L157.939 25.2483ZM163.329 31.4929H160.891V17.402C160.891 16.8758 160.743 16.4997 160.447 16.2738C160.147 16.0509 159.763 15.9395 159.293 15.9395L159.808 14.3145C161.469 14.3145 162.507 14.8794 162.923 16.0091C163.103 15.777 163.397 15.5062 163.806 15.1966C164.21 14.8871 164.716 14.6163 165.322 14.3842C165.925 14.152 166.615 14.0359 167.391 14.0359C168.475 14.0359 169.491 14.2789 170.441 14.7649C171.387 15.2539 172.149 15.9581 172.727 16.8773C173.305 17.7997 173.593 18.9186 173.593 20.2341C173.593 21.5186 173.305 22.6437 172.727 23.6094C172.149 24.5782 171.396 25.3288 170.468 25.8612C169.536 26.3966 168.529 26.6644 167.446 26.6644C166.615 26.6644 165.839 26.5204 165.116 26.2326C164.394 25.9478 163.798 25.6197 163.329 25.2483V31.4929ZM166.958 24.8072C168.186 24.8072 169.184 24.3925 169.953 23.563C170.719 22.7365 171.102 21.6501 171.102 20.3037C171.102 19.3752 170.909 18.5781 170.522 17.9127C170.132 17.2472 169.618 16.7365 168.978 16.3806C168.336 16.0246 167.626 15.8466 166.85 15.8466C166.073 15.8466 165.375 16.0122 164.753 16.3434C164.129 16.6777 163.654 17.0383 163.329 17.4252V23.368C163.798 23.7858 164.34 24.1294 164.954 24.3987C165.568 24.671 166.236 24.8072 166.958 24.8072ZM182.612 26.6644C180.59 26.6644 178.987 26.1103 177.802 25.0022C176.621 23.8972 176.031 22.3466 176.031 20.3501C176.031 19.143 176.296 18.0628 176.827 17.1095C177.362 16.1592 178.107 15.4087 179.064 14.8577C180.021 14.3099 181.132 14.0359 182.396 14.0359C183.75 14.0359 184.873 14.2867 185.765 14.7881C186.66 15.2926 187.334 15.9704 187.785 16.8216C188.237 17.6728 188.462 18.6091 188.462 19.6305C188.462 20.1722 188.435 20.6984 188.381 21.2091H178.523C178.685 22.3388 179.146 23.2209 179.904 23.8555C180.662 24.49 181.664 24.8072 182.91 24.8072C183.723 24.8072 184.454 24.733 185.104 24.5844C185.754 24.4389 186.377 24.2501 186.973 24.018L187.541 25.8054C186.891 26.0531 186.16 26.2589 185.348 26.4229C184.535 26.5839 183.623 26.6644 182.612 26.6644ZM178.496 19.5144H186.214C186.214 18.3383 185.871 17.4329 185.185 16.7984C184.499 16.1639 183.551 15.8466 182.341 15.8466C181.294 15.8466 180.428 16.1592 179.741 16.7845C179.055 17.4128 178.64 18.3228 178.496 19.5144ZM194.15 26.3858H191.712V14.3145H194.069V16.9377C194.303 16.427 194.619 15.9503 195.016 15.5077C195.414 15.0682 195.91 14.7122 196.506 14.4399C197.102 14.1706 197.797 14.0359 198.591 14.0359C198.862 14.0359 199.133 14.0468 199.404 14.0684C199.675 14.0932 199.901 14.1288 200.081 14.1752L199.35 16.3341C199.007 16.2103 198.601 16.1484 198.131 16.1484C197.463 16.1484 196.826 16.3109 196.219 16.6359C195.616 16.9609 195.119 17.4639 194.729 18.1448C194.343 18.8258 194.15 19.6924 194.15 20.7448V26.3858ZM207.984 26.6644C206.63 26.6644 205.561 26.2806 204.777 25.5129C203.99 24.7484 203.597 23.6543 203.597 22.2305V16.5663H201.159V14.7556H203.651L204.165 10.9485H206.034V14.7556H209.934V16.5663H206.034V22.393C206.034 23.2906 206.256 23.9174 206.7 24.2733C207.141 24.6293 207.668 24.8072 208.282 24.8072C208.733 24.8072 209.163 24.7453 209.571 24.6215C209.976 24.4977 210.349 24.3507 210.692 24.1805L211.369 25.8519C211.008 26.0376 210.521 26.2202 209.907 26.3997C209.293 26.5761 208.652 26.6644 207.984 26.6644Z"/>
</mask>
<path d="M51.6205 26.6644C50.3025 26.6644 49.1018 26.5127 48.0184 26.2094C46.9351 25.9091 46.0233 25.5114 45.283 25.0162L46.583 23.159C47.233 23.6233 47.9643 24.0025 48.7768 24.2965C49.5893 24.5906 50.5372 24.7376 51.6205 24.7376C52.9205 24.7376 53.9497 24.5055 54.7081 24.0412C55.4664 23.5769 55.8456 22.9501 55.8456 22.1608C55.8456 21.712 55.7372 21.3128 55.5206 20.963C55.3039 20.6163 54.8832 20.2759 54.2585 19.9416C53.6374 19.6104 52.7219 19.2514 51.5122 18.8645C50.2122 18.4311 49.174 17.9932 48.3976 17.5505C47.6212 17.111 47.0651 16.6081 46.7293 16.0416C46.3971 15.4783 46.2309 14.8097 46.2309 14.0359C46.2309 13.2621 46.4801 12.5611 46.9784 11.9328C47.4732 11.3075 48.2044 10.8046 49.1722 10.4238C50.1364 10.0462 51.3046 9.85742 52.6768 9.85742C53.7962 9.85742 54.8037 9.95337 55.6993 10.1453C56.5913 10.3403 57.4615 10.6157 58.3102 10.9717L57.3622 12.852C56.7483 12.5425 56.0315 12.2825 55.2118 12.072C54.3885 11.8647 53.5254 11.761 52.6226 11.761C51.431 11.761 50.4921 11.9622 49.806 12.3645C49.1198 12.7669 48.7768 13.2854 48.7768 13.9199C48.7768 14.3222 48.8761 14.6782 49.0747 14.9877C49.2733 15.2972 49.6669 15.599 50.2555 15.8931C50.8405 16.1871 51.7198 16.5198 52.8935 16.8913C54.3018 17.3401 55.4176 17.8121 56.241 18.3073C57.0607 18.8025 57.6421 19.3396 57.9851 19.9184C58.3282 20.5003 58.4997 21.1626 58.4997 21.9055C58.4997 22.9114 58.2072 23.7703 57.6222 24.4822C57.0336 25.1941 56.2211 25.7358 55.1847 26.1072C54.1447 26.4786 52.9567 26.6644 51.6205 26.6644ZM67.9519 26.6644C66.6157 26.6644 65.415 26.3966 64.3498 25.8612C63.2845 25.3288 62.4485 24.5859 61.8418 23.6326C61.2388 22.6824 60.9372 21.5882 60.9372 20.3501C60.9372 19.0502 61.2442 17.9282 61.8581 16.9841C62.472 16.0401 63.3116 15.3127 64.3768 14.802C65.4421 14.2913 66.6338 14.0359 67.9519 14.0359C69.2699 14.0359 70.4562 14.2913 71.5106 14.802C72.5687 15.3127 73.4083 16.0354 74.0294 16.9702C74.6541 17.908 74.9665 19.0192 74.9665 20.3037C74.9665 21.5882 74.6595 22.7056 74.0456 23.6558C73.4317 24.6091 72.5958 25.3489 71.5377 25.8751C70.4833 26.4013 69.288 26.6644 67.9519 26.6644ZM67.9519 24.8072C69.3782 24.8072 70.4887 24.3925 71.2831 23.563C72.0776 22.7365 72.4748 21.6656 72.4748 20.3501C72.4748 19.5454 72.2762 18.8056 71.879 18.1309C71.4817 17.4592 70.9437 16.9176 70.2648 16.5059C69.5895 16.0973 68.8185 15.8931 67.9519 15.8931C66.5255 15.8931 65.415 16.2954 64.6206 17.1002C63.8261 17.9049 63.4289 18.9728 63.4289 20.3037C63.4289 21.1085 63.6275 21.8544 64.0248 22.5416C64.422 23.2318 64.9582 23.7812 65.6335 24.1897C66.3124 24.6014 67.0852 24.8072 67.9519 24.8072ZM82.8207 26.6644C82.0082 26.6644 81.2408 26.5173 80.5186 26.2233C79.7963 25.9292 79.2095 25.4526 78.7581 24.7933C78.3068 24.1371 78.0811 23.2596 78.0811 22.1608V14.3145H80.5186V21.8823C80.5186 22.8263 80.7515 23.549 81.2173 24.0505C81.6904 24.555 82.3783 24.8072 83.2811 24.8072C84.0214 24.8072 84.7382 24.6788 85.4315 24.4219C86.1284 24.1681 86.7478 23.8245 87.2894 23.3912V14.3145H89.7269V23.2519C89.7269 23.9174 89.893 24.3538 90.2253 24.5612C90.5611 24.7716 90.9276 24.8769 91.3249 24.8769L90.8103 26.5019C89.1311 26.5019 88.0929 25.9292 87.6957 24.784C87.0637 25.3412 86.3325 25.7931 85.5019 26.1397C84.6714 26.4895 83.7776 26.6644 82.8207 26.6644ZM97.007 26.3858H94.5694V14.3145H96.9257V16.9377C97.1604 16.427 97.4764 15.9503 97.8736 15.5077C98.2708 15.0682 98.7674 14.7122 99.3632 14.4399C99.959 14.1706 100.654 14.0359 101.449 14.0359C101.719 14.0359 101.99 14.0468 102.261 14.0684C102.532 14.0932 102.758 14.1288 102.938 14.1752L102.207 16.3341C101.864 16.2103 101.458 16.1484 100.988 16.1484C100.32 16.1484 99.6846 16.3109 99.0815 16.6359C98.4749 16.9609 97.9784 17.4639 97.592 18.1448C97.202 18.8258 97.007 19.6924 97.007 20.7448V26.3858ZM110.251 26.6644C108.915 26.6644 107.746 26.3966 106.746 25.8612C105.742 25.3288 104.969 24.5859 104.428 23.6326C103.886 22.6824 103.615 21.5882 103.615 20.3501C103.615 19.1894 103.892 18.1293 104.444 17.1698C104.993 16.2103 105.782 15.4474 106.811 14.8809C107.84 14.3176 109.05 14.0359 110.44 14.0359C111.235 14.0359 111.935 14.0978 112.542 14.2217C113.145 14.3455 113.726 14.5234 114.286 14.7556L113.555 16.5198C113.049 16.3032 112.567 16.1438 112.109 16.0416C111.646 15.9426 111.135 15.8931 110.576 15.8931C109.312 15.8931 108.252 16.2831 107.396 17.063C106.537 17.8461 106.107 18.9264 106.107 20.3037C106.107 21.1394 106.288 21.8977 106.649 22.5787C107.01 23.2596 107.512 23.8013 108.154 24.2037C108.794 24.606 109.547 24.8072 110.413 24.8072C111.099 24.8072 111.686 24.7407 112.174 24.6076C112.661 24.4776 113.185 24.2888 113.745 24.0412L114.503 25.8054C113.943 26.0685 113.317 26.2775 112.623 26.4322C111.926 26.587 111.135 26.6644 110.251 26.6644ZM122.709 26.6644C120.687 26.6644 119.084 26.1103 117.899 25.0022C116.718 23.8972 116.128 22.3466 116.128 20.3501C116.128 19.143 116.393 18.0628 116.924 17.1095C117.459 16.1592 118.204 15.4087 119.161 14.8577C120.118 14.3099 121.229 14.0359 122.492 14.0359C123.847 14.0359 124.97 14.2867 125.862 14.7881C126.757 15.2926 127.431 15.9704 127.882 16.8216C128.333 17.6728 128.559 18.6091 128.559 19.6305C128.559 20.1722 128.532 20.6984 128.478 21.2091H118.62C118.782 22.3388 119.242 23.2209 120.001 23.8555C120.759 24.49 121.761 24.8072 123.007 24.8072C123.82 24.8072 124.551 24.733 125.201 24.5844C125.851 24.4389 126.474 24.2501 127.07 24.018L127.638 25.8054C126.988 26.0531 126.257 26.2589 125.445 26.4229C124.632 26.5839 123.72 26.6644 122.709 26.6644ZM118.592 19.5144H126.311C126.311 18.3383 125.968 17.4329 125.282 16.7984C124.596 16.1639 123.648 15.8466 122.438 15.8466C121.391 15.8466 120.524 16.1592 119.838 16.7845C119.152 17.4128 118.737 18.3228 118.592 19.5144ZM143.455 26.3858H132.08V10.136H143.455V12.0395H134.653V16.9841H142.236V18.8412H134.653V24.4822H143.455V26.3858ZM157.939 25.2483L156.098 26.5947L151.358 21.5573L146.673 26.5483L144.939 25.2483L149.95 20.2573L145.129 15.4752L147.025 14.0592L151.385 18.8877L155.664 14.152L157.479 15.4752L152.793 20.1644L157.939 25.2483ZM163.329 31.4929H160.891V17.402C160.891 16.8758 160.743 16.4997 160.447 16.2738C160.147 16.0509 159.763 15.9395 159.293 15.9395L159.808 14.3145C161.469 14.3145 162.507 14.8794 162.923 16.0091C163.103 15.777 163.397 15.5062 163.806 15.1966C164.21 14.8871 164.716 14.6163 165.322 14.3842C165.925 14.152 166.615 14.0359 167.391 14.0359C168.475 14.0359 169.491 14.2789 170.441 14.7649C171.387 15.2539 172.149 15.9581 172.727 16.8773C173.305 17.7997 173.593 18.9186 173.593 20.2341C173.593 21.5186 173.305 22.6437 172.727 23.6094C172.149 24.5782 171.396 25.3288 170.468 25.8612C169.536 26.3966 168.529 26.6644 167.446 26.6644C166.615 26.6644 165.839 26.5204 165.116 26.2326C164.394 25.9478 163.798 25.6197 163.329 25.2483V31.4929ZM166.958 24.8072C168.186 24.8072 169.184 24.3925 169.953 23.563C170.719 22.7365 171.102 21.6501 171.102 20.3037C171.102 19.3752 170.909 18.5781 170.522 17.9127C170.132 17.2472 169.618 16.7365 168.978 16.3806C168.336 16.0246 167.626 15.8466 166.85 15.8466C166.073 15.8466 165.375 16.0122 164.753 16.3434C164.129 16.6777 163.654 17.0383 163.329 17.4252V23.368C163.798 23.7858 164.34 24.1294 164.954 24.3987C165.568 24.671 166.236 24.8072 166.958 24.8072ZM182.612 26.6644C180.59 26.6644 178.987 26.1103 177.802 25.0022C176.621 23.8972 176.031 22.3466 176.031 20.3501C176.031 19.143 176.296 18.0628 176.827 17.1095C177.362 16.1592 178.107 15.4087 179.064 14.8577C180.021 14.3099 181.132 14.0359 182.396 14.0359C183.75 14.0359 184.873 14.2867 185.765 14.7881C186.66 15.2926 187.334 15.9704 187.785 16.8216C188.237 17.6728 188.462 18.6091 188.462 19.6305C188.462 20.1722 188.435 20.6984 188.381 21.2091H178.523C178.685 22.3388 179.146 23.2209 179.904 23.8555C180.662 24.49 181.664 24.8072 182.91 24.8072C183.723 24.8072 184.454 24.733 185.104 24.5844C185.754 24.4389 186.377 24.2501 186.973 24.018L187.541 25.8054C186.891 26.0531 186.16 26.2589 185.348 26.4229C184.535 26.5839 183.623 26.6644 182.612 26.6644ZM178.496 19.5144H186.214C186.214 18.3383 185.871 17.4329 185.185 16.7984C184.499 16.1639 183.551 15.8466 182.341 15.8466C181.294 15.8466 180.428 16.1592 179.741 16.7845C179.055 17.4128 178.64 18.3228 178.496 19.5144ZM194.15 26.3858H191.712V14.3145H194.069V16.9377C194.303 16.427 194.619 15.9503 195.016 15.5077C195.414 15.0682 195.91 14.7122 196.506 14.4399C197.102 14.1706 197.797 14.0359 198.591 14.0359C198.862 14.0359 199.133 14.0468 199.404 14.0684C199.675 14.0932 199.901 14.1288 200.081 14.1752L199.35 16.3341C199.007 16.2103 198.601 16.1484 198.131 16.1484C197.463 16.1484 196.826 16.3109 196.219 16.6359C195.616 16.9609 195.119 17.4639 194.729 18.1448C194.343 18.8258 194.15 19.6924 194.15 20.7448V26.3858ZM207.984 26.6644C206.63 26.6644 205.561 26.2806 204.777 25.5129C203.99 24.7484 203.597 23.6543 203.597 22.2305V16.5663H201.159V14.7556H203.651L204.165 10.9485H206.034V14.7556H209.934V16.5663H206.034V22.393C206.034 23.2906 206.256 23.9174 206.7 24.2733C207.141 24.6293 207.668 24.8072 208.282 24.8072C208.733 24.8072 209.163 24.7453 209.571 24.6215C209.976 24.4977 210.349 24.3507 210.692 24.1805L211.369 25.8519C211.008 26.0376 210.521 26.2202 209.907 26.3997C209.293 26.5761 208.652 26.6644 207.984 26.6644Z" fill="white"/>
<path d="M51.6205 26.6644C50.3025 26.6644 49.1018 26.5127 48.0184 26.2094C46.9351 25.9091 46.0233 25.5114 45.283 25.0162L46.583 23.159C47.233 23.6233 47.9643 24.0025 48.7768 24.2965C49.5893 24.5906 50.5372 24.7376 51.6205 24.7376C52.9205 24.7376 53.9497 24.5055 54.7081 24.0412C55.4664 23.5769 55.8456 22.9501 55.8456 22.1608C55.8456 21.712 55.7372 21.3128 55.5206 20.963C55.3039 20.6163 54.8832 20.2759 54.2585 19.9416C53.6374 19.6104 52.7219 19.2514 51.5122 18.8645C50.2122 18.4311 49.174 17.9932 48.3976 17.5505C47.6212 17.111 47.0651 16.6081 46.7293 16.0416C46.3971 15.4783 46.2309 14.8097 46.2309 14.0359C46.2309 13.2621 46.4801 12.5611 46.9784 11.9328C47.4732 11.3075 48.2044 10.8046 49.1722 10.4238C50.1364 10.0462 51.3046 9.85742 52.6768 9.85742C53.7962 9.85742 54.8037 9.95337 55.6993 10.1453C56.5913 10.3403 57.4615 10.6157 58.3102 10.9717L57.3622 12.852C56.7483 12.5425 56.0315 12.2825 55.2118 12.072C54.3885 11.8647 53.5254 11.761 52.6226 11.761C51.431 11.761 50.4921 11.9622 49.806 12.3645C49.1198 12.7669 48.7768 13.2854 48.7768 13.9199C48.7768 14.3222 48.8761 14.6782 49.0747 14.9877C49.2733 15.2972 49.6669 15.599 50.2555 15.8931C50.8405 16.1871 51.7198 16.5198 52.8935 16.8913C54.3018 17.3401 55.4176 17.8121 56.241 18.3073C57.0607 18.8025 57.6421 19.3396 57.9851 19.9184C58.3282 20.5003 58.4997 21.1626 58.4997 21.9055C58.4997 22.9114 58.2072 23.7703 57.6222 24.4822C57.0336 25.1941 56.2211 25.7358 55.1847 26.1072C54.1447 26.4786 52.9567 26.6644 51.6205 26.6644ZM67.9519 26.6644C66.6157 26.6644 65.415 26.3966 64.3498 25.8612C63.2845 25.3288 62.4485 24.5859 61.8418 23.6326C61.2388 22.6824 60.9372 21.5882 60.9372 20.3501C60.9372 19.0502 61.2442 17.9282 61.8581 16.9841C62.472 16.0401 63.3116 15.3127 64.3768 14.802C65.4421 14.2913 66.6338 14.0359 67.9519 14.0359C69.2699 14.0359 70.4562 14.2913 71.5106 14.802C72.5687 15.3127 73.4083 16.0354 74.0294 16.9702C74.6541 17.908 74.9665 19.0192 74.9665 20.3037C74.9665 21.5882 74.6595 22.7056 74.0456 23.6558C73.4317 24.6091 72.5958 25.3489 71.5377 25.8751C70.4833 26.4013 69.288 26.6644 67.9519 26.6644ZM67.9519 24.8072C69.3782 24.8072 70.4887 24.3925 71.2831 23.563C72.0776 22.7365 72.4748 21.6656 72.4748 20.3501C72.4748 19.5454 72.2762 18.8056 71.879 18.1309C71.4817 17.4592 70.9437 16.9176 70.2648 16.5059C69.5895 16.0973 68.8185 15.8931 67.9519 15.8931C66.5255 15.8931 65.415 16.2954 64.6206 17.1002C63.8261 17.9049 63.4289 18.9728 63.4289 20.3037C63.4289 21.1085 63.6275 21.8544 64.0248 22.5416C64.422 23.2318 64.9582 23.7812 65.6335 24.1897C66.3124 24.6014 67.0852 24.8072 67.9519 24.8072ZM82.8207 26.6644C82.0082 26.6644 81.2408 26.5173 80.5186 26.2233C79.7963 25.9292 79.2095 25.4526 78.7581 24.7933C78.3068 24.1371 78.0811 23.2596 78.0811 22.1608V14.3145H80.5186V21.8823C80.5186 22.8263 80.7515 23.549 81.2173 24.0505C81.6904 24.555 82.3783 24.8072 83.2811 24.8072C84.0214 24.8072 84.7382 24.6788 85.4315 24.4219C86.1284 24.1681 86.7478 23.8245 87.2894 23.3912V14.3145H89.7269V23.2519C89.7269 23.9174 89.893 24.3538 90.2253 24.5612C90.5611 24.7716 90.9276 24.8769 91.3249 24.8769L90.8103 26.5019C89.1311 26.5019 88.0929 25.9292 87.6957 24.784C87.0637 25.3412 86.3325 25.7931 85.5019 26.1397C84.6714 26.4895 83.7776 26.6644 82.8207 26.6644ZM97.007 26.3858H94.5694V14.3145H96.9257V16.9377C97.1604 16.427 97.4764 15.9503 97.8736 15.5077C98.2708 15.0682 98.7674 14.7122 99.3632 14.4399C99.959 14.1706 100.654 14.0359 101.449 14.0359C101.719 14.0359 101.99 14.0468 102.261 14.0684C102.532 14.0932 102.758 14.1288 102.938 14.1752L102.207 16.3341C101.864 16.2103 101.458 16.1484 100.988 16.1484C100.32 16.1484 99.6846 16.3109 99.0815 16.6359C98.4749 16.9609 97.9784 17.4639 97.592 18.1448C97.202 18.8258 97.007 19.6924 97.007 20.7448V26.3858ZM110.251 26.6644C108.915 26.6644 107.746 26.3966 106.746 25.8612C105.742 25.3288 104.969 24.5859 104.428 23.6326C103.886 22.6824 103.615 21.5882 103.615 20.3501C103.615 19.1894 103.892 18.1293 104.444 17.1698C104.993 16.2103 105.782 15.4474 106.811 14.8809C107.84 14.3176 109.05 14.0359 110.44 14.0359C111.235 14.0359 111.935 14.0978 112.542 14.2217C113.145 14.3455 113.726 14.5234 114.286 14.7556L113.555 16.5198C113.049 16.3032 112.567 16.1438 112.109 16.0416C111.646 15.9426 111.135 15.8931 110.576 15.8931C109.312 15.8931 108.252 16.2831 107.396 17.063C106.537 17.8461 106.107 18.9264 106.107 20.3037C106.107 21.1394 106.288 21.8977 106.649 22.5787C107.01 23.2596 107.512 23.8013 108.154 24.2037C108.794 24.606 109.547 24.8072 110.413 24.8072C111.099 24.8072 111.686 24.7407 112.174 24.6076C112.661 24.4776 113.185 24.2888 113.745 24.0412L114.503 25.8054C113.943 26.0685 113.317 26.2775 112.623 26.4322C111.926 26.587 111.135 26.6644 110.251 26.6644ZM122.709 26.6644C120.687 26.6644 119.084 26.1103 117.899 25.0022C116.718 23.8972 116.128 22.3466 116.128 20.3501C116.128 19.143 116.393 18.0628 116.924 17.1095C117.459 16.1592 118.204 15.4087 119.161 14.8577C120.118 14.3099 121.229 14.0359 122.492 14.0359C123.847 14.0359 124.97 14.2867 125.862 14.7881C126.757 15.2926 127.431 15.9704 127.882 16.8216C128.333 17.6728 128.559 18.6091 128.559 19.6305C128.559 20.1722 128.532 20.6984 128.478 21.2091H118.62C118.782 22.3388 119.242 23.2209 120.001 23.8555C120.759 24.49 121.761 24.8072 123.007 24.8072C123.82 24.8072 124.551 24.733 125.201 24.5844C125.851 24.4389 126.474 24.2501 127.07 24.018L127.638 25.8054C126.988 26.0531 126.257 26.2589 125.445 26.4229C124.632 26.5839 123.72 26.6644 122.709 26.6644ZM118.592 19.5144H126.311C126.311 18.3383 125.968 17.4329 125.282 16.7984C124.596 16.1639 123.648 15.8466 122.438 15.8466C121.391 15.8466 120.524 16.1592 119.838 16.7845C119.152 17.4128 118.737 18.3228 118.592 19.5144ZM143.455 26.3858H132.08V10.136H143.455V12.0395H134.653V16.9841H142.236V18.8412H134.653V24.4822H143.455V26.3858ZM157.939 25.2483L156.098 26.5947L151.358 21.5573L146.673 26.5483L144.939 25.2483L149.95 20.2573L145.129 15.4752L147.025 14.0592L151.385 18.8877L155.664 14.152L157.479 15.4752L152.793 20.1644L157.939 25.2483ZM163.329 31.4929H160.891V17.402C160.891 16.8758 160.743 16.4997 160.447 16.2738C160.147 16.0509 159.763 15.9395 159.293 15.9395L159.808 14.3145C161.469 14.3145 162.507 14.8794 162.923 16.0091C163.103 15.777 163.397 15.5062 163.806 15.1966C164.21 14.8871 164.716 14.6163 165.322 14.3842C165.925 14.152 166.615 14.0359 167.391 14.0359C168.475 14.0359 169.491 14.2789 170.441 14.7649C171.387 15.2539 172.149 15.9581 172.727 16.8773C173.305 17.7997 173.593 18.9186 173.593 20.2341C173.593 21.5186 173.305 22.6437 172.727 23.6094C172.149 24.5782 171.396 25.3288 170.468 25.8612C169.536 26.3966 168.529 26.6644 167.446 26.6644C166.615 26.6644 165.839 26.5204 165.116 26.2326C164.394 25.9478 163.798 25.6197 163.329 25.2483V31.4929ZM166.958 24.8072C168.186 24.8072 169.184 24.3925 169.953 23.563C170.719 22.7365 171.102 21.6501 171.102 20.3037C171.102 19.3752 170.909 18.5781 170.522 17.9127C170.132 17.2472 169.618 16.7365 168.978 16.3806C168.336 16.0246 167.626 15.8466 166.85 15.8466C166.073 15.8466 165.375 16.0122 164.753 16.3434C164.129 16.6777 163.654 17.0383 163.329 17.4252V23.368C163.798 23.7858 164.34 24.1294 164.954 24.3987C165.568 24.671 166.236 24.8072 166.958 24.8072ZM182.612 26.6644C180.59 26.6644 178.987 26.1103 177.802 25.0022C176.621 23.8972 176.031 22.3466 176.031 20.3501C176.031 19.143 176.296 18.0628 176.827 17.1095C177.362 16.1592 178.107 15.4087 179.064 14.8577C180.021 14.3099 181.132 14.0359 182.396 14.0359C183.75 14.0359 184.873 14.2867 185.765 14.7881C186.66 15.2926 187.334 15.9704 187.785 16.8216C188.237 17.6728 188.462 18.6091 188.462 19.6305C188.462 20.1722 188.435 20.6984 188.381 21.2091H178.523C178.685 22.3388 179.146 23.2209 179.904 23.8555C180.662 24.49 181.664 24.8072 182.91 24.8072C183.723 24.8072 184.454 24.733 185.104 24.5844C185.754 24.4389 186.377 24.2501 186.973 24.018L187.541 25.8054C186.891 26.0531 186.16 26.2589 185.348 26.4229C184.535 26.5839 183.623 26.6644 182.612 26.6644ZM178.496 19.5144H186.214C186.214 18.3383 185.871 17.4329 185.185 16.7984C184.499 16.1639 183.551 15.8466 182.341 15.8466C181.294 15.8466 180.428 16.1592 179.741 16.7845C179.055 17.4128 178.64 18.3228 178.496 19.5144ZM194.15 26.3858H191.712V14.3145H194.069V16.9377C194.303 16.427 194.619 15.9503 195.016 15.5077C195.414 15.0682 195.91 14.7122 196.506 14.4399C197.102 14.1706 197.797 14.0359 198.591 14.0359C198.862 14.0359 199.133 14.0468 199.404 14.0684C199.675 14.0932 199.901 14.1288 200.081 14.1752L199.35 16.3341C199.007 16.2103 198.601 16.1484 198.131 16.1484C197.463 16.1484 196.826 16.3109 196.219 16.6359C195.616 16.9609 195.119 17.4639 194.729 18.1448C194.343 18.8258 194.15 19.6924 194.15 20.7448V26.3858ZM207.984 26.6644C206.63 26.6644 205.561 26.2806 204.777 25.5129C203.99 24.7484 203.597 23.6543 203.597 22.2305V16.5663H201.159V14.7556H203.651L204.165 10.9485H206.034V14.7556H209.934V16.5663H206.034V22.393C206.034 23.2906 206.256 23.9174 206.7 24.2733C207.141 24.6293 207.668 24.8072 208.282 24.8072C208.733 24.8072 209.163 24.7453 209.571 24.6215C209.976 24.4977 210.349 24.3507 210.692 24.1805L211.369 25.8519C211.008 26.0376 210.521 26.2202 209.907 26.3997C209.293 26.5761 208.652 26.6644 207.984 26.6644Z" stroke="white" mask="url(#path-3-outside-1_1_628)"/>
</g>
</g>
</g>
</g>
</g>
<defs>
<filter id="filter0_d_1_628" x="36.5806" y="3.35742" width="187.424" height="42.6355" filterUnits="userSpaceOnUse" color-interpolation-filters="sRGB">
<feFlood flood-opacity="0" result="BackgroundImageFix"/>
<feColorMatrix in="SourceAlpha" type="matrix" values="0 0 0 0 0 0 0 0 0 0 0 0 0 0 0 0 0 0 127 0" result="hardAlpha"/>
<feOffset dx="2" dy="4"/>
<feGaussianBlur stdDeviation="5"/>
<feComposite in2="hardAlpha" operator="out"/>
<feColorMatrix type="matrix" values="0 0 0 0 1 0 0 0 0 1 0 0 0 0 1 0 0 0 0.12 0"/>
<feBlend mode="normal" in2="BackgroundImageFix" result="effect1_dropShadow_1_628"/>
<feBlend mode="normal" in="SourceGraphic" in2="effect1_dropShadow_1_628" result="shape"/>
</filter>
<linearGradient id="paint0_linear_1_628" x1="33.8571" y1="-1.22615e-06" x2="3" y2="32.5714" gradientUnits="userSpaceOnUse">
<stop stop-color="#666CFF"/>
<stop offset="1" stop-color="#9B9FFF"/>
</linearGradient>
<clipPath id="clip0_1_628">
<rect width="166.651" height="35.996" fill="white" transform="translate(45 0.00195312)"/>
</clipPath>
<clipPath id="clip1_1_628">
<rect width="166.103" height="35.8335" fill="white" transform="translate(45.2742 0.083252)"/>
</clipPath>
<clipPath id="clip2_1_628">
<rect width="166.103" height="21.6355" fill="white" transform="translate(45.2742 6.85742)"/>
</clipPath>
<clipPath id="clip3_1_628">
<rect width="166.103" height="21.6355" fill="white" transform="translate(45.2742 6.85742)"/>
</clipPath>
</defs>
</svg>
