<svg width="36" height="36" viewBox="0 0 36 36" fill="none" xmlns="http://www.w3.org/2000/svg">
<path d="M30.24 0H5.76C2.57884 0 0 2.57884 0 5.76V30.24C0 33.4212 2.57884 36 5.76 36H30.24C33.4212 36 36 33.4212 36 30.24V5.76C36 2.57884 33.4212 0 30.24 0Z" fill="url(#paint0_linear_1_629)"/>
<path d="M11.73 25.3C10.6767 25.3 9.72667 25.1167 8.88 24.75C8.04 24.3833 7.34667 23.86 6.8 23.18C6.26 22.4933 5.91667 21.68 5.77 20.74L8.27 20.36C8.48333 21.2133 8.92 21.8733 9.58 22.34C10.2467 22.8067 11.0133 23.04 11.88 23.04C12.3933 23.04 12.8767 22.96 13.33 22.8C13.7833 22.64 14.15 22.4067 14.43 22.1C14.7167 21.7933 14.86 21.4167 14.86 20.97C14.86 20.77 14.8267 20.5867 14.76 20.42C14.6933 20.2467 14.5933 20.0933 14.46 19.96C14.3333 19.8267 14.1667 19.7067 13.96 19.6C13.76 19.4867 13.5267 19.39 13.26 19.31L9.54 18.21C9.22 18.1167 8.87333 17.9933 8.5 17.84C8.13333 17.68 7.78333 17.4633 7.45 17.19C7.12333 16.91 6.85333 16.5567 6.64 16.13C6.43333 15.6967 6.33 15.1633 6.33 14.53C6.33 13.6033 6.56333 12.8267 7.03 12.2C7.50333 11.5667 8.13667 11.0933 8.93 10.78C9.73 10.4667 10.6167 10.3133 11.59 10.32C12.5767 10.3267 13.4567 10.4967 14.23 10.83C15.0033 11.1567 15.65 11.6333 16.17 12.26C16.69 12.8867 17.0567 13.6433 17.27 14.53L14.68 14.98C14.5733 14.4733 14.3667 14.0433 14.06 13.69C13.76 13.33 13.39 13.0567 12.95 12.87C12.5167 12.6833 12.0533 12.5833 11.56 12.57C11.08 12.5633 10.6333 12.6367 10.22 12.79C9.81333 12.9367 9.48333 13.15 9.23 13.43C8.98333 13.71 8.86 14.0367 8.86 14.41C8.86 14.7633 8.96667 15.0533 9.18 15.28C9.39333 15.5 9.65667 15.6767 9.97 15.81C10.29 15.9367 10.6133 16.0433 10.94 16.13L13.52 16.85C13.8733 16.9433 14.27 17.07 14.71 17.23C15.15 17.39 15.5733 17.6133 15.98 17.9C16.3867 18.1867 16.72 18.5633 16.98 19.03C17.2467 19.4967 17.38 20.09 17.38 20.81C17.38 21.5567 17.2233 22.2133 16.91 22.78C16.6033 23.34 16.1867 23.8067 15.66 24.18C15.1333 24.5533 14.53 24.8333 13.85 25.02C13.1767 25.2067 12.47 25.3 11.73 25.3ZM19.5445 25V10.6H28.8445V12.86H21.9545V16.41H27.6445V18.67H21.9545V22.74H28.8445V25H19.5445Z" fill="white"/>
<defs>
<linearGradient id="paint0_linear_1_629" x1="33.8571" y1="-1.22615e-06" x2="3" y2="32.5714" gradientUnits="userSpaceOnUse">
<stop stop-color="#666CFF"/>
<stop offset="1" stop-color="#9B9FFF"/>
</linearGradient>
</defs>
</svg>
