<svg width="1440" height="1322" viewBox="0 0 1440 1322" fill="none" xmlns="http://www.w3.org/2000/svg">
<g clip-path="url(#clip0_1_205)">
<rect width="1440" height="1322" fill="#080A32"/>
<path opacity="0.2" d="M1252.27 1453.99C1366.74 1523.83 1516.15 1487.65 1585.99 1373.17C1655.83 1258.7 1619.65 1109.29 1505.17 1039.45C1390.7 969.615 1241.29 1005.8 1171.45 1120.27C1101.61 1234.74 1137.8 1384.15 1252.27 1453.99ZM1445.92 1136.57C1506.76 1173.69 1525.99 1253.09 1488.87 1313.92C1451.76 1374.76 1372.36 1393.99 1311.52 1356.87C1250.69 1319.76 1231.46 1240.36 1268.57 1179.52C1305.69 1118.69 1385.09 1099.46 1445.92 1136.57Z" fill="url(#paint0_linear_1_205)"/>
<path opacity="0.2" d="M-18.6316 261.524C67.1759 313.874 179.175 286.751 231.524 200.944C283.874 115.136 256.751 3.1376 170.944 -49.2122C85.1364 -101.562 -26.8622 -74.4393 -79.2121 11.3682C-131.562 97.1757 -104.439 209.174 -18.6316 261.524ZM126.53 23.5872C172.132 51.408 186.546 110.928 158.725 156.53C130.904 202.131 71.3837 216.545 25.7822 188.725C-19.8192 160.904 -34.2334 101.384 -6.41261 55.782C21.4081 10.1806 80.9286 -4.23353 126.53 23.5872Z" fill="url(#paint1_linear_1_205)"/>
<path d="M0.489629 1144L0.489579 1.87848e-05M180.428 1144L180.428 1.87848e-05M360.367 1144L360.367 1.87848e-05M540.306 1144L540.306 1.87848e-05M720.245 1144L720.245 1.87848e-05M900.184 1144L900.184 1.87848e-05M1080.12 1144L1080.12 1.87848e-05M1260.06 1144L1260.06 1.87848e-05M1440 1144L1440 1.87848e-05M0 31.9863H1439.51M0 211.967L1439.51 211.967M0 391.947L1439.51 391.947M0 571.927L1439.51 571.927M0 751.908L1439.51 751.908M0 931.888L1439.51 931.888M0 1111.87L1439.51 1111.87" stroke="url(#paint2_linear_1_205)" stroke-opacity="0.3"/>
</g>
<defs>
<linearGradient id="paint0_linear_1_205" x1="1712.03" y1="1462.63" x2="1045" y2="1078.42" gradientUnits="userSpaceOnUse">
<stop stop-color="white"/>
<stop offset="1" stop-color="white" stop-opacity="0"/>
</linearGradient>
<linearGradient id="paint1_linear_1_205" x1="-79.2121" y1="11.3682" x2="231.524" y2="200.944" gradientUnits="userSpaceOnUse">
<stop stop-color="white"/>
<stop offset="1" stop-color="white" stop-opacity="0"/>
</linearGradient>
<linearGradient id="paint2_linear_1_205" x1="612.425" y1="-96.0001" x2="460.527" y2="1084.53" gradientUnits="userSpaceOnUse">
<stop stop-color="white"/>
<stop offset="1" stop-color="white" stop-opacity="0"/>
</linearGradient>
<clipPath id="clip0_1_205">
<rect width="1440" height="1322" fill="white"/>
</clipPath>
</defs>
</svg>
